<svg width="24" height="24" viewBox="0 0 24 24" fill="none" xmlns="http://www.w3.org/2000/svg">
<path fill-rule="evenodd" clip-rule="evenodd" d="M11.9426 1.25H12.0574C14.3658 1.24999 16.1748 1.24998 17.5863 1.43975C19.031 1.63399 20.1711 2.03933 21.0659 2.93414C21.9607 3.82895 22.366 4.96897 22.5603 6.41371C22.75 7.82519 22.75 9.63423 22.75 11.9426V12.0574C22.75 14.3658 22.75 16.1748 22.5603 17.5863C22.366 19.031 21.9607 20.1711 21.0659 21.0659C20.1711 21.9607 19.031 22.366 17.5863 22.5603C16.1748 22.75 14.3658 22.75 12.0574 22.75H11.9426C9.63423 22.75 7.82519 22.75 6.41371 22.5603C4.96897 22.366 3.82895 21.9607 2.93414 21.0659C2.03933 20.1711 1.63399 19.031 1.43975 17.5863C1.24998 16.1748 1.24999 14.3658 1.25 12.0574V11.9426C1.24999 9.63423 1.24998 7.82519 1.43975 6.41371C1.63399 4.96897 2.03933 3.82895 2.93414 2.93414C3.82895 2.03933 4.96897 1.63399 6.41371 1.43975C7.82519 1.24998 9.63423 1.24999 11.9426 1.25ZM6.61358 2.92637C5.33517 3.09825 4.56445 3.42514 3.9948 3.9948C3.42514 4.56445 3.09825 5.33517 2.92637 6.61358C2.75159 7.91356 2.75 9.62177 2.75 12C2.75 14.3782 2.75159 16.0864 2.92637 17.3864C3.09825 18.6648 3.42514 19.4355 3.9948 20.0052C4.56445 20.5749 5.33517 20.9018 6.61358 21.0736C7.91356 21.2484 9.62177 21.25 12 21.25C14.3782 21.25 16.0864 21.2484 17.3864 21.0736C18.6648 20.9018 19.4355 20.5749 20.0052 20.0052C20.5749 19.4355 20.9018 18.6648 21.0736 17.3864C21.2484 16.0864 21.25 14.3782 21.25 12C21.25 9.62177 21.2484 7.91356 21.0736 6.61358C20.9018 5.33517 20.5749 4.56445 20.0052 3.9948C19.4355 3.42514 18.6648 3.09825 17.3864 2.92637C16.0864 2.75159 14.3782 2.75 12 2.75C9.62177 2.75 7.91356 2.75159 6.61358 2.92637Z" fill="#1C274C"/>
<path fill-rule="evenodd" clip-rule="evenodd" d="M8.49996 7.25C8.828 7.25 9.11797 7.46319 9.21582 7.77629L11.7158 15.7763C11.8394 16.1717 11.619 16.5923 11.2237 16.7159C10.8283 16.8394 10.4076 16.6191 10.2841 16.2237L9.57356 13.95H7.42635L6.71582 16.2237C6.59227 16.6191 6.17161 16.8394 5.77625 16.7159C5.38089 16.5923 5.16055 16.1717 5.2841 15.7763L7.7841 7.77629C7.88194 7.46319 8.17192 7.25 8.49996 7.25ZM7.8951 12.45H9.10481L8.49996 10.5145L7.8951 12.45ZM13.25 8C13.25 7.58579 13.5857 7.25 14 7.25H16C17.5187 7.25 18.75 8.48122 18.75 10C18.75 11.2469 17.9201 12.3 16.7825 12.637L18.636 15.6025C18.8555 15.9538 18.7487 16.4165 18.3975 16.636C18.0462 16.8555 17.5835 16.7488 17.364 16.3975L15.0843 12.75H14.75V16C14.75 16.4142 14.4142 16.75 14 16.75C13.5857 16.75 13.25 16.4142 13.25 16V8ZM14.75 8.75V11.25H16C16.6903 11.25 17.25 10.6904 17.25 10C17.25 9.30964 16.6903 8.75 16 8.75H14.75Z" fill="#1C274C"/>
</svg>
