<svg width="24" height="24" viewBox="0 0 24 24" fill="none" xmlns="http://www.w3.org/2000/svg">
<path fill-rule="evenodd" clip-rule="evenodd" d="M20.5276 10.3731C20.1569 9.73114 19.4776 9.52011 18.8292 9.42944C18.1755 9.33803 17.3006 9.33806 16.2424 9.33809L16.1822 9.33809C15.552 9.33809 15.1401 9.33188 14.84 9.29015C14.5685 9.25241 14.4822 9.19655 14.4454 9.16397C14.4184 9.13587 14.3704 9.07014 14.3376 8.83317C14.2991 8.55376 14.2974 8.17061 14.2974 7.55655V7.18206C14.2974 5.59454 14.2974 4.3228 14.1752 3.41611C14.0606 2.56505 13.788 1.6092 12.8438 1.31986C11.9162 1.0356 11.1382 1.64515 10.5334 2.27356C9.88918 2.94301 9.12389 3.97846 8.16571 5.2749L5.02872 9.5192C4.41838 10.3449 3.90959 11.0332 3.60644 11.6024C3.30256 12.173 3.0814 12.8504 3.41847 13.5263L3.41965 13.5288L3.4232 13.536L3.42724 13.544L3.43121 13.5517L3.43556 13.5599L3.43998 13.568L3.44417 13.5755L3.44859 13.5833L3.45265 13.5902L3.45414 13.5927C3.82164 14.2291 4.498 14.4519 5.15236 14.5518C5.82668 14.6548 6.72646 14.6614 7.81771 14.6614C8.45431 14.6614 8.86024 14.6628 9.15835 14.7008C9.42171 14.7344 9.50047 14.7862 9.53423 14.816C9.56414 14.8473 9.61658 14.9202 9.65356 15.1658C9.69588 15.4468 9.70252 15.8359 9.70251 16.443L9.7025 16.8173C9.70245 18.4049 9.70242 19.6766 9.82458 20.5833C9.93926 21.4344 10.2118 22.3902 11.156 22.6796C12.0836 22.9639 12.8617 22.3543 13.4664 21.7259C14.1107 21.0564 14.876 20.021 15.8342 18.7245L18.9335 14.5312C19.5643 13.6778 20.0831 12.9648 20.3891 12.3713C20.6885 11.7906 20.8973 11.1092 20.5633 10.4395L20.5622 10.4371L20.5586 10.4299L20.5546 10.4218L20.5506 10.4141L20.5462 10.4059L20.5418 10.3978L20.5376 10.3902L20.5331 10.3824L20.5291 10.3754L20.5276 10.3731ZM11.6142 3.31367C11.0463 3.90386 10.3385 4.85878 9.33476 6.21684L6.27262 10.3599C5.61493 11.2497 5.17489 11.8485 4.93038 12.3076C4.81136 12.531 4.76668 12.672 4.75396 12.7573C4.74611 12.81 4.7509 12.8338 4.75718 12.8491C4.78137 12.8847 4.88638 12.9939 5.37875 13.069C5.91665 13.1512 6.69008 13.1614 7.81771 13.1614L7.86368 13.1614C8.44081 13.1614 8.94368 13.1613 9.34806 13.2129C9.78124 13.2681 10.2115 13.3937 10.5678 13.7288L10.5736 13.7343L10.5793 13.7399C10.9294 14.0834 11.0716 14.5094 11.1368 14.9424C11.1992 15.3563 11.2025 15.8654 11.2025 16.443L11.2025 16.7526C11.2025 18.4195 11.2042 19.5889 11.3112 20.383C11.3644 20.7784 11.4361 21.0103 11.5047 21.1399C11.5561 21.2369 11.5857 21.2433 11.5941 21.2451L11.5955 21.2454L11.5971 21.2459C11.6075 21.2495 11.6444 21.2623 11.7581 21.2051C11.9001 21.1336 12.1029 20.9795 12.3856 20.6858C12.9536 20.0956 13.6614 19.1407 14.6651 17.7826L17.7273 13.6396C18.3812 12.7548 18.8169 12.1473 19.0558 11.684C19.2606 11.2868 19.2383 11.1523 19.2246 11.1166C19.2022 11.0838 19.1013 10.9821 18.6214 10.915C18.0843 10.8399 17.3158 10.8381 16.1822 10.8381C15.5793 10.8381 15.0565 10.8347 14.6334 10.7759C14.1966 10.7151 13.7653 10.5836 13.4121 10.2515L13.4063 10.246L13.4006 10.2404C13.0473 9.8937 12.9111 9.46825 12.8518 9.03838C12.7973 8.64405 12.7973 8.15573 12.7974 7.60489L12.7974 7.24685C12.7974 5.57995 12.7957 4.4105 12.6887 3.61643C12.6354 3.22104 12.5637 2.98911 12.4951 2.85959C12.4437 2.76252 12.4141 2.75617 12.4058 2.75438L12.4043 2.75403L12.4028 2.75352C12.3923 2.74991 12.3554 2.73719 12.2418 2.79439C12.0998 2.86584 11.8969 3.01993 11.6142 3.31367Z" fill="#1C274C"/>
</svg>
