<svg width="24" height="24" viewBox="0 0 24 24" fill="none" xmlns="http://www.w3.org/2000/svg">
<path fill-rule="evenodd" clip-rule="evenodd" d="M21.0364 2.88373C21.3293 3.17663 21.3293 3.6515 21.0364 3.94439L19.4038 5.57701C20.6349 7.27231 20.6066 9.59792 19.3188 11.2642L19.3226 11.2962L19.2908 11.3C19.2908 11.3001 19.2909 11.3 19.2908 11.3C19.3228 11.2963 19.3226 11.2962 19.3226 11.2962L19.3232 11.3007L19.3241 11.3089L19.327 11.336C19.3294 11.3588 19.3326 11.391 19.3363 11.432C19.3436 11.5141 19.3527 11.6317 19.3609 11.7805C19.3772 12.0779 19.3896 12.5013 19.3753 13.0165C19.3469 14.0442 19.2118 15.4509 18.7813 16.9569C18.4903 17.9747 18.0374 18.9818 17.5724 19.8625C16.4113 22.0616 13.7396 22.7184 11.6963 21.6754L11.6714 21.6627L10.5511 20.9812C7.4412 19.0893 4.83066 16.4788 2.93877 13.3688L2.25736 12.2487L2.24465 12.2238C1.20165 10.1805 1.85845 7.50879 4.05755 6.34768C4.93823 5.88268 5.94532 5.42972 6.96319 5.13874C8.46913 4.70823 9.87585 4.57319 10.9036 4.54473C11.4187 4.53046 11.8421 4.54288 12.1396 4.55919C12.2884 4.56734 12.4059 4.57649 12.488 4.5838C12.529 4.58745 12.5612 4.59065 12.584 4.59304L12.6111 4.59597L12.6193 4.5969L12.622 4.59722L12.623 4.59734C12.6231 4.59735 12.6236 4.5974 12.6198 4.62984C12.6197 4.62989 12.6198 4.62978 12.6198 4.62984L12.623 4.59734L12.6563 4.60132C14.3225 3.31367 16.6479 3.2853 18.3431 4.51635L19.9758 2.88373C20.2687 2.59084 20.7435 2.59084 21.0364 2.88373ZM12.1975 6.06557C12.1557 6.06269 12.1089 6.05976 12.0575 6.05694C11.7957 6.04259 11.4139 6.03117 10.9451 6.04415C10.005 6.07019 8.72905 6.19401 7.37549 6.58096C6.49162 6.83364 5.58485 7.23752 4.75792 7.67414C3.35129 8.41682 2.88488 10.1484 3.56876 11.5182L4.22028 12.5892C5.98742 15.4941 8.42584 17.9325 11.3307 19.6997L12.4018 20.3513C13.7717 21.0352 15.5032 20.5688 16.2459 19.1621C16.6825 18.3352 17.0864 17.4284 17.3391 16.5446C17.726 15.191 17.8499 13.915 17.8759 12.9749C17.8889 12.5062 17.8775 12.1244 17.8631 11.8626C17.8603 11.8111 17.8574 11.7644 17.8545 11.7225L12.1975 6.06557ZM18.3234 10.0701L13.8502 5.5969C15.1031 4.82281 16.7678 4.97907 17.8544 6.06571C18.9411 7.15238 19.0974 8.81714 18.3234 10.0701Z" fill="#1C274C"/>
</svg>
