<svg width="24" height="24" viewBox="0 0 24 24" fill="none" xmlns="http://www.w3.org/2000/svg">
<path fill-rule="evenodd" clip-rule="evenodd" d="M15.6015 2.40067C15.3817 2.18091 15.1052 2.19057 14.9536 2.21069C14.8102 2.2297 14.6385 2.27857 14.4749 2.32513L14.3489 2.36094L14.2464 2.2963C14.1079 2.20877 13.959 2.11474 13.8266 2.05718C13.6772 1.99226 13.4251 1.9184 13.1602 2.05762C12.9004 2.19419 12.8148 2.43866 12.7795 2.59422C12.7473 2.73578 12.7335 2.91279 12.7205 3.08113L12.7105 3.20864L12.7097 3.21926L12.5981 3.31111C12.4648 3.42078 12.3265 3.53459 12.2284 3.64185C12.1244 3.75547 11.9642 3.96894 12.0049 4.26618C12.047 4.57358 12.2696 4.73296 12.4087 4.8101C12.5347 4.87996 12.7004 4.94112 12.855 4.99813L12.9638 5.03834L13.004 5.1472C13.061 5.30171 13.1222 5.46751 13.1921 5.59346C13.2692 5.73257 13.4286 5.95516 13.736 5.99725C14.0332 6.03795 14.2467 5.87772 14.3603 5.77379C14.4676 5.67569 14.5814 5.53736 14.691 5.40406L14.7829 5.29249L14.7935 5.29165L14.921 5.2817C15.0894 5.26862 15.2664 5.25487 15.4079 5.22269C15.5635 5.18732 15.808 5.10181 15.9445 4.84197C16.0838 4.57709 16.0099 4.32496 15.945 4.1756C15.8874 4.04319 15.7934 3.89432 15.7059 3.75575L15.6412 3.65329L15.677 3.52728C15.7236 3.36368 15.7725 3.19194 15.7915 3.0486C15.8116 2.89692 15.8213 2.62044 15.6015 2.40067ZM14.702 3.30019L14.624 3.32234L14.6034 3.32838C14.528 3.35079 14.3709 3.39748 14.2072 3.37505C14.0396 3.35211 13.9009 3.26208 13.8366 3.22038L13.8195 3.20932L13.7185 3.14561L13.7075 3.28647L13.706 3.308C13.7007 3.38728 13.6899 3.54725 13.6136 3.69257C13.5382 3.83596 13.4139 3.93608 13.3511 3.98671L13.3338 4.0007L13.2431 4.07544L13.3205 4.10407L13.3396 4.11091C13.4113 4.13628 13.5695 4.19231 13.6897 4.3125C13.8099 4.43269 13.8659 4.59089 13.8913 4.66253L13.8981 4.68162L13.9267 4.75911L14.0015 4.66832L14.0154 4.65108C14.0661 4.58823 14.1662 4.46397 14.3096 4.3886C14.4549 4.31223 14.6149 4.30151 14.6942 4.29619L14.7157 4.29468L14.8566 4.28368L14.7928 4.18269L14.7818 4.16552C14.7401 4.10127 14.6501 3.96255 14.6271 3.79498C14.6047 3.63122 14.6514 3.47412 14.6738 3.39873L14.6798 3.37813L14.702 3.30019Z" fill="#1C274C"/>
<path d="M10.4351 3.17064C10.6512 2.81724 10.5398 2.3556 10.1864 2.13956C9.83302 1.92351 9.37139 2.03486 9.15534 2.38827C8.63713 3.23593 8.76701 4.32824 9.46953 5.03076L9.56741 5.12864C9.76508 5.3263 9.83796 5.61668 9.75708 5.88426C9.63723 6.28076 9.86149 6.69934 10.258 6.81919C10.6545 6.93904 11.0731 6.71478 11.1929 6.31829C11.4338 5.52141 11.2167 4.65663 10.6281 4.06798L10.5302 3.9701C10.3177 3.75756 10.2784 3.4271 10.4351 3.17064Z" fill="#1C274C"/>
<path d="M7.68629 3.94105C7.47682 3.73159 7.1372 3.73159 6.92773 3.94105C6.71826 4.15052 6.71826 4.49014 6.92773 4.69961C7.1372 4.90908 7.47682 4.90908 7.68629 4.69961C7.89575 4.49014 7.89575 4.15052 7.68629 3.94105Z" fill="#1C274C"/>
<path d="M18.2776 5.60439C18.3588 5.19822 18.0954 4.8031 17.6892 4.72187C17.283 4.64064 16.8879 4.90405 16.8067 5.31022L16.6627 6.03015C16.5701 6.49314 16.2365 6.87101 15.7886 7.02032C14.83 7.33984 14.1161 8.14851 13.918 9.13933L13.774 9.85926C13.6928 10.2654 13.9562 10.6606 14.3623 10.7418C14.7685 10.823 15.1636 10.5596 15.2449 10.1534L15.3889 9.4335C15.4814 8.97052 15.815 8.59265 16.2629 8.44334C17.2215 8.12381 17.9354 7.31514 18.1336 6.32433L18.2776 5.60439Z" fill="#1C274C"/>
<path fill-rule="evenodd" clip-rule="evenodd" d="M22.5236 8.84253C22.7795 9.39643 22.6068 10.0253 22.1397 10.4924C21.8688 10.7633 21.5058 10.886 21.1825 10.9435C20.8518 11.0023 20.5022 11.0034 20.196 10.9838C19.8867 10.964 19.6032 10.9218 19.3981 10.8849C19.2951 10.8664 19.2106 10.849 19.151 10.8361L19.1047 10.8258L19.0808 10.8203L19.0611 10.8156L19.0553 10.8142L19.0534 10.8138C19.0533 10.8138 19.0523 10.8135 19.1724 10.3281L19.0523 10.8135C18.8723 10.7689 18.7316 10.6281 18.687 10.4481L18.6864 10.4453L18.685 10.4395L18.6803 10.4198C18.6764 10.4031 18.671 10.3794 18.6645 10.3496C18.6516 10.29 18.6342 10.2055 18.6157 10.1024C18.5788 9.89743 18.5366 9.61385 18.5168 9.30461C18.4972 8.99837 18.4983 8.6488 18.5571 8.3181C18.6146 7.99483 18.7373 7.63182 19.0082 7.36094C19.4753 6.89381 20.1042 6.72114 20.6581 6.97699C21.0782 7.17107 21.3515 7.56385 21.4545 8.04614C21.9367 8.14907 22.3295 8.42236 22.5236 8.84253ZM19.5961 9.90447C19.7742 9.93586 20.0095 9.96985 20.2599 9.98588C20.5232 10.0027 20.7852 9.99845 21.0074 9.95894C21.237 9.9181 21.3683 9.84957 21.4325 9.78531C21.6753 9.54255 21.6567 9.35057 21.6158 9.26186C21.5712 9.16547 21.4116 8.99904 21.0018 9.00013C20.8687 9.00049 20.741 8.94778 20.6469 8.85369C20.5528 8.75959 20.5001 8.63187 20.5005 8.4988C20.5016 8.08899 20.3351 7.92935 20.2387 7.88483C20.15 7.84385 19.958 7.82529 19.7153 8.06805C19.651 8.1323 19.5825 8.26356 19.5417 8.49319C19.5021 8.71539 19.4979 8.97734 19.5147 9.24073C19.5307 9.49108 19.5647 9.72644 19.5961 9.90447Z" fill="#1C274C"/>
<path d="M20.3309 13.73C20.6263 13.468 21.0469 13.4016 21.4086 13.5598L21.7001 13.6872C22.0796 13.8531 22.5218 13.68 22.6878 13.3005C22.8537 12.921 22.6806 12.4788 22.3011 12.3128L22.0096 12.1854C21.1122 11.793 20.0685 11.9578 19.3357 12.6076C19.0095 12.8969 18.5349 12.945 18.1573 12.727L17.9445 12.6041C17.5857 12.397 17.127 12.5199 16.9199 12.8786C16.7128 13.2373 16.8357 13.696 17.1945 13.9031L17.4073 14.026C18.344 14.5668 19.5217 14.4476 20.3309 13.73Z" fill="#1C274C"/>
<path d="M19.0583 15.3136C19.2678 15.1042 19.6074 15.1042 19.8169 15.3136C20.0264 15.5231 20.0264 15.8627 19.8169 16.0722C19.6074 16.2817 19.2678 16.2817 19.0583 16.0722C18.8489 15.8627 18.8489 15.5231 19.0583 15.3136Z" fill="#1C274C"/>
<path d="M12.9158 7.15738C12.7063 6.94791 12.3667 6.94791 12.1572 7.15738C11.9478 7.36685 11.9478 7.70646 12.1572 7.91593C12.3667 8.1254 12.7063 8.1254 12.9158 7.91593C13.1252 7.70646 13.1252 7.36685 12.9158 7.15738Z" fill="#1C274C"/>
<path d="M17.1572 10.1574C17.3667 9.94791 17.7063 9.94791 17.9158 10.1574C18.1252 10.3668 18.1252 10.7065 17.9158 10.9159C17.7063 11.1254 17.3667 11.1254 17.1572 10.9159C16.9478 10.7065 16.9478 10.3668 17.1572 10.1574Z" fill="#1C274C"/>
<path fill-rule="evenodd" clip-rule="evenodd" d="M9.63896 6.88522C10.2253 7.31993 10.8999 7.99456 11.7185 8.81325L15.1862 12.2809C16.0049 13.0996 16.6795 13.7741 17.1142 14.3605C17.5633 14.9663 17.8798 15.6395 17.6968 16.4148C17.5138 17.1901 16.9296 17.6507 16.257 17.9917C15.606 18.3217 14.7009 18.6233 13.6026 18.9894L8.41228 20.7195C7.08241 21.1628 6.00323 21.5226 5.16641 21.6714C4.322 21.8217 3.46515 21.8065 2.82904 21.1704C2.19294 20.5343 2.17779 19.6774 2.328 18.833C2.47687 17.9962 2.83663 16.917 3.27998 15.587L5.01002 10.3969C5.37611 9.29852 5.67776 8.39346 6.00779 7.74242C6.34875 7.0698 6.80936 6.48566 7.58466 6.30263C8.35996 6.11961 9.03319 6.4361 9.63896 6.88522ZM8.74559 8.09017C8.72811 8.07721 8.71099 8.06471 8.69422 8.05267C8.68271 8.11493 8.67047 8.18186 8.65763 8.25311C8.57264 8.72472 8.46128 9.38422 8.35599 10.1346C8.14336 11.65 7.96353 13.4818 8.05559 14.8857C8.11132 15.7356 8.29333 16.835 8.46708 17.7421C8.55313 18.1913 8.6356 18.5855 8.69653 18.8672C8.70955 18.9274 8.72157 18.9824 8.73243 19.0317L11.3671 18.1534C11.2979 17.9479 11.2149 17.6832 11.132 17.3751C10.933 16.6353 10.7272 15.6178 10.7272 14.5556C10.7272 13.4404 10.9321 12.4231 11.133 11.691C11.2339 11.323 11.3352 11.0222 11.4123 10.811C11.4302 10.7618 11.4469 10.7174 11.462 10.678L10.7022 9.91825C9.82802 9.04407 9.2317 8.45057 8.74559 8.09017ZM6.41321 10.9307C6.62217 10.3038 6.796 9.78418 6.95433 9.35379C6.92637 9.53733 6.89826 9.72867 6.87054 9.92618C6.65541 11.4594 6.45615 13.4184 6.5588 14.9838C6.62092 15.931 6.81799 17.1061 6.99387 18.0243C7.08263 18.4877 7.1676 18.8938 7.23043 19.1843C7.25947 19.3185 7.28382 19.4283 7.30168 19.5078C6.26086 19.8515 5.49409 20.0896 4.90369 20.1946C4.18292 20.3228 3.98348 20.2035 3.8897 20.1097C3.79593 20.016 3.67659 19.8165 3.80481 19.0957C3.93207 18.3804 4.25474 17.4061 4.72371 15.9992L6.41321 10.9307ZM13.0687 17.5862L12.7901 17.6791C12.7292 17.4985 12.6549 17.2621 12.5805 16.9855C12.5266 16.7853 12.4734 16.5665 12.4252 16.3345C12.3123 15.7906 12.2272 15.1743 12.2272 14.5556C12.2272 13.6155 12.4013 12.7374 12.5795 12.0879C12.6013 12.0083 12.6232 11.9325 12.6446 11.8607L14.0812 13.2972C14.9554 14.1714 15.5489 14.7677 15.9093 15.2538C16.2631 15.7311 16.2678 15.9392 16.2369 16.0701C16.206 16.2011 16.1087 16.3851 15.5788 16.6537C15.039 16.9273 14.2415 17.1953 13.0687 17.5862Z" fill="#1C274C"/>
</svg>
