<svg width="24" height="24" viewBox="0 0 24 24" fill="none" xmlns="http://www.w3.org/2000/svg">
<path fill-rule="evenodd" clip-rule="evenodd" d="M7.75 5.61847C7.75 4.31755 6.38095 3.47143 5.21738 4.05322L3.21738 5.05322C2.6245 5.34966 2.25 5.95562 2.25 6.61847V10.2504H2C1.58579 10.2504 1.25 10.5862 1.25 11.0004V17.0004C1.25 19.0715 2.92893 20.7504 5 20.7504C7.07107 20.7504 8.75 19.0715 8.75 17.0004V11.0004C8.75 10.5862 8.41421 10.2504 8 10.2504H7.75V5.61847ZM2.75 11.7504H7.25V17.0004C7.25 18.2431 6.24264 19.2504 5 19.2504C3.75736 19.2504 2.75 18.2431 2.75 17.0004V11.7504ZM6.25 10.2504V5.61847C6.25 5.43262 6.05442 5.31175 5.8882 5.39486L3.8882 6.39486C3.8035 6.43721 3.75 6.52378 3.75 6.61847V10.2504H6.25Z" fill="#1C274C"/>
<path fill-rule="evenodd" clip-rule="evenodd" d="M16.5 4.25043C13.0482 4.25043 10.25 7.04865 10.25 10.5004C10.25 13.6984 12.6518 16.3354 15.75 16.7059V19.2504H13.5C13.0858 19.2504 12.75 19.5862 12.75 20.0004C12.75 20.4146 13.0858 20.7504 13.5 20.7504H19.5C19.9142 20.7504 20.25 20.4146 20.25 20.0004C20.25 19.5862 19.9142 19.2504 19.5 19.2504H17.25V16.7059C20.3482 16.3354 22.75 13.6984 22.75 10.5004C22.75 7.04865 19.9518 4.25043 16.5 4.25043ZM16.5 15.2504C19.1234 15.2504 21.25 13.1238 21.25 10.5004C21.25 7.87707 19.1234 5.75043 16.5 5.75043C13.8766 5.75043 11.75 7.87707 11.75 10.5004C11.75 13.1238 13.8766 15.2504 16.5 15.2504Z" fill="#1C274C"/>
</svg>
