<svg width="24" height="24" viewBox="0 0 24 24" fill="none" xmlns="http://www.w3.org/2000/svg">
<path fill-rule="evenodd" clip-rule="evenodd" d="M8.66659 1.25C6.41142 1.25 4.58325 3.07817 4.58325 5.33333C4.58325 6.70965 5.26417 7.92693 6.30752 8.66667C5.26418 9.4064 4.58325 10.6237 4.58325 12C4.58325 13.3763 5.26418 14.5936 6.30752 15.3333C5.26418 16.0731 4.58325 17.2903 4.58325 18.6667C4.58325 20.9218 6.41142 22.75 8.66658 22.75C10.9217 22.75 12.7499 20.9218 12.7499 18.6667V15.1624C13.4537 15.738 14.3531 16.0833 15.3332 16.0833C17.5884 16.0833 19.4166 14.2552 19.4166 12C19.4166 10.6237 18.7357 9.4064 17.6923 8.66666C18.7357 7.92693 19.4166 6.70965 19.4166 5.33333C19.4166 3.07817 17.5884 1.25 15.3332 1.25H8.66659ZM11.2499 14.5833H8.66658C7.23985 14.5833 6.08325 13.4267 6.08325 12C6.08325 10.5733 7.23985 9.41666 8.66658 9.41667L11.2499 9.41666L11.2499 12L11.2499 14.5833ZM8.66658 7.91667H11.2499V2.75H8.66659C7.23985 2.75 6.08325 3.9066 6.08325 5.33333C6.08325 6.76007 7.23985 7.91667 8.66658 7.91667ZM17.9166 5.33333C17.9166 6.75914 16.7615 7.91517 15.336 7.91667L14.043 7.91666L12.7499 7.91666L12.7499 2.75H15.3332C16.76 2.75 17.9166 3.9066 17.9166 5.33333ZM12.7499 11.9968C12.7516 10.5726 13.9059 9.41838 15.3301 9.41667L15.3357 9.41667C16.7613 9.41801 17.9166 10.5741 17.9166 12C17.9166 13.4267 16.76 14.5833 15.3332 14.5833C13.9076 14.5833 12.7516 13.4284 12.7499 12.0032V11.9968ZM8.66658 16.0833C7.23985 16.0833 6.08325 17.2399 6.08325 18.6667C6.08325 20.0934 7.23985 21.25 8.66658 21.25C10.0933 21.25 11.2499 20.0934 11.2499 18.6667V16.0833H8.66658Z" fill="#1C274C"/>
</svg>
