<svg width="24" height="24" viewBox="0 0 24 24" fill="none" xmlns="http://www.w3.org/2000/svg">
<path d="M12.0001 12.25C12.4143 12.25 12.7501 12.5858 12.7501 13V15C12.7501 15.4142 12.4143 15.75 12.0001 15.75C11.5858 15.75 11.2501 15.4142 11.2501 15V13C11.2501 12.5858 11.5858 12.25 12.0001 12.25Z" fill="#1C274C"/>
<path fill-rule="evenodd" clip-rule="evenodd" d="M5.95532 1.25C5.5225 1.24995 5.12567 1.24991 4.80286 1.29331C4.44738 1.3411 4.07165 1.45355 3.76263 1.76257C3.45361 2.07159 3.34116 2.44732 3.29337 2.8028C3.24997 3.12561 3.25001 3.52244 3.25006 3.95526L3.25007 4.17158L3.24991 4.25163C3.24897 4.5773 3.24796 4.92879 3.38328 5.25549C3.5186 5.58218 3.76786 5.83001 3.99881 6.05963L4.05552 6.11612L7.29817 9.35877C7.9195 9.9801 8.07304 10.1524 8.15492 10.3501C8.23679 10.5477 8.25007 10.7782 8.25007 11.6569V19.0253C8.25006 19.4697 8.25005 19.8408 8.27084 20.1454C8.29247 20.4625 8.33912 20.762 8.4594 21.0524C8.73851 21.7262 9.27386 22.2616 9.94769 22.5407C10.2381 22.661 10.5376 22.7076 10.8547 22.7292C11.1593 22.75 11.5304 22.75 11.9748 22.75H12.0253C12.4698 22.75 12.8408 22.75 13.1454 22.7292C13.4625 22.7076 13.7621 22.661 14.0524 22.5407C14.7263 22.2616 15.2616 21.7262 15.5407 21.0524C15.661 20.762 15.7077 20.4625 15.7293 20.1454C15.7501 19.8408 15.7501 19.4697 15.7501 19.0253V11.6569C15.7501 10.7782 15.7633 10.5477 15.8452 10.3501C15.9271 10.1524 16.0806 9.9801 16.702 9.35876L19.9446 6.11612L20.0013 6.05963C20.2323 5.83001 20.4815 5.58218 20.6169 5.25549C20.7522 4.92879 20.7512 4.5773 20.7502 4.25163L20.7501 4.17158L20.7501 3.95526C20.7501 3.52244 20.7502 3.12561 20.7068 2.8028C20.659 2.44732 20.5465 2.07159 20.2375 1.76257C19.9285 1.45355 19.5528 1.3411 19.1973 1.29331C18.8745 1.24991 18.4776 1.24995 18.0448 1.25H5.95532ZM4.82574 2.82187L4.82331 2.82324L4.82193 2.82568C4.82092 2.82761 4.8193 2.83093 4.81723 2.83597C4.80827 2.85775 4.79297 2.90611 4.77999 3.00267C4.75166 3.21339 4.75007 3.5074 4.75007 4.00001V4.17158C4.75007 4.19924 4.75008 4.22534 4.75011 4.25H19.25C19.2501 4.22534 19.2501 4.19924 19.2501 4.17158V4.00001C19.2501 3.5074 19.2485 3.21339 19.2201 3.00267C19.2072 2.90611 19.1919 2.85775 19.1829 2.83597C19.1808 2.83093 19.1792 2.82761 19.1782 2.82568L19.1768 2.82324L19.1744 2.82187C19.1725 2.82086 19.1691 2.81924 19.1641 2.81717C19.1423 2.80821 19.094 2.79291 18.9974 2.77993C18.7867 2.7516 18.4927 2.75001 18.0001 2.75001H6.00007C5.50746 2.75001 5.21346 2.7516 5.00273 2.77993C4.90617 2.79291 4.85781 2.80821 4.83603 2.81717C4.83099 2.81924 4.82767 2.82086 4.82574 2.82187ZM18.1894 5.75H5.81072L8.44434 8.38351C8.75625 8.69482 9.02713 8.96518 9.23748 9.25H14.7627C14.973 8.96519 15.2439 8.69485 15.5558 8.38355L18.1894 5.75ZM14.2634 10.75H9.73675C9.75067 10.9925 9.75042 11.2522 9.75014 11.536L9.75007 19C9.75007 19.4762 9.75047 19.7958 9.76736 20.0433C9.78378 20.284 9.81326 20.4012 9.84522 20.4784C9.97209 20.7846 10.2154 21.028 10.5217 21.1549C10.5989 21.1868 10.7161 21.2163 10.9568 21.2327C11.2043 21.2496 11.5239 21.25 12.0001 21.25C12.4763 21.25 12.7959 21.2496 13.0433 21.2327C13.2841 21.2163 13.4013 21.1868 13.4784 21.1549C13.7847 21.028 14.0281 20.7846 14.1549 20.4784C14.1869 20.4012 14.2164 20.284 14.2328 20.0433C14.2497 19.7958 14.2501 19.4762 14.2501 19L14.25 11.536C14.2497 11.2522 14.2495 10.9925 14.2634 10.75Z" fill="#1C274C"/>
</svg>
