<svg width="24" height="24" viewBox="0 0 24 24" fill="none" xmlns="http://www.w3.org/2000/svg">
<path d="M12.0001 1.25C12.4143 1.25 12.7501 1.58579 12.7501 2V5C12.7501 5.41421 12.4143 5.75 12.0001 5.75C11.5858 5.75 11.2501 5.41421 11.2501 5V2C11.2501 1.58579 11.5858 1.25 12.0001 1.25Z" fill="#1C274C"/>
<path fill-rule="evenodd" clip-rule="evenodd" d="M5.95532 7.25H18.0448C18.4776 7.24995 18.8745 7.24991 19.1973 7.29331C19.5528 7.3411 19.9285 7.45355 20.2375 7.76257C20.5465 8.07159 20.659 8.44732 20.7068 8.8028C20.7502 9.12561 20.7501 9.52244 20.7501 9.95526L20.7501 10.1716L20.7502 10.2516C20.7512 10.5773 20.7522 10.9288 20.6169 11.2555C20.4815 11.5822 20.2323 11.83 20.0013 12.0596L19.9446 12.1161L16.702 15.3588C16.0806 15.9801 15.9271 16.1524 15.8452 16.3501C15.7633 16.5477 15.7501 16.7782 15.7501 17.6569V22C15.7501 22.4142 15.4143 22.75 15.0001 22.75C14.5859 22.75 14.2501 22.4142 14.2501 22L14.25 17.536C14.2497 17.2522 14.2495 16.9925 14.2634 16.75H9.73675C9.75067 16.9925 9.75042 17.2522 9.75014 17.536L9.75007 22C9.75007 22.4142 9.41428 22.75 9.00007 22.75C8.58585 22.75 8.25007 22.4142 8.25007 22V17.6569C8.25007 16.7782 8.23679 16.5477 8.15492 16.3501C8.07304 16.1524 7.9195 15.9801 7.29817 15.3588L4.05552 12.1161L3.99881 12.0596C3.76786 11.83 3.5186 11.5822 3.38328 11.2555C3.24796 10.9288 3.24897 10.5773 3.24991 10.2516L3.25007 10.1716L3.25006 9.95526C3.25001 9.52244 3.24997 9.12561 3.29337 8.8028C3.34116 8.44732 3.45361 8.07159 3.76263 7.76257C4.07165 7.45355 4.44738 7.3411 4.80286 7.29331C5.12567 7.24991 5.5225 7.24995 5.95532 7.25ZM15.5558 14.3835C15.2439 14.6948 14.973 14.9652 14.7627 15.25H9.23748C9.02712 14.9652 8.75625 14.6948 8.44434 14.3835L5.81072 11.75H18.1894L15.5558 14.3835ZM19.25 10.25L19.2501 10C19.2501 9.5074 19.2485 9.21339 19.2201 9.00267C19.2072 8.90611 19.1919 8.85775 19.1829 8.83597L19.1803 8.83004L19.1782 8.82568L19.1768 8.82324L19.1744 8.82187L19.1702 8.8198L19.1641 8.81717C19.1423 8.80821 19.094 8.79291 18.9974 8.77993C18.7867 8.7516 18.4927 8.75001 18.0001 8.75001H6.00007C5.50746 8.75001 5.21346 8.7516 5.00273 8.77993C4.90617 8.79291 4.85781 8.80821 4.83603 8.81717C4.83099 8.81924 4.82767 8.82086 4.82574 8.82187L4.82331 8.82324L4.82193 8.82568C4.82092 8.82761 4.8193 8.83093 4.81723 8.83597C4.80827 8.85775 4.79297 8.90611 4.77999 9.00267C4.75166 9.21339 4.75007 9.5074 4.75007 10L4.75011 10.25H19.25Z" fill="#1C274C"/>
<path d="M6.53039 2.46967C6.2375 2.17678 5.76262 2.17678 5.46973 2.46967C5.17684 2.76256 5.17684 3.23744 5.46973 3.53033L7.46973 5.53033C7.76262 5.82322 8.2375 5.82322 8.53039 5.53033C8.82328 5.23744 8.82328 4.76256 8.53039 4.46967L6.53039 2.46967Z" fill="#1C274C"/>
<path d="M18.5304 2.46967C18.2375 2.17678 17.7626 2.17678 17.4697 2.46967L15.4697 4.46967C15.1768 4.76256 15.1768 5.23744 15.4697 5.53033C15.7626 5.82322 16.2375 5.82322 16.5304 5.53033L18.5304 3.53033C18.8233 3.23744 18.8233 2.76256 18.5304 2.46967Z" fill="#1C274C"/>
<path d="M12.7501 19C12.7501 18.5858 12.4143 18.25 12.0001 18.25C11.5858 18.25 11.2501 18.5858 11.2501 19V21C11.2501 21.4142 11.5858 21.75 12.0001 21.75C12.4143 21.75 12.7501 21.4142 12.7501 21V19Z" fill="#1C274C"/>
</svg>
