<svg width="24" height="24" viewBox="0 0 24 24" fill="none" xmlns="http://www.w3.org/2000/svg">
<path fill-rule="evenodd" clip-rule="evenodd" d="M13.0222 4.41033C14.1296 3.70331 14.8904 3.21978 15.477 2.95431C16.063 2.68911 16.266 2.74003 16.3704 2.79378C16.4687 2.84434 16.6217 2.96797 16.7289 3.58347C16.8368 4.20331 16.8604 5.08725 16.8919 6.38174L16.9079 7.03828L16.9107 7.15782V7.15783C16.9245 7.75951 16.9363 8.27628 17.1558 8.73614C17.3767 9.19909 17.7711 9.52774 18.2249 9.90584L18.315 9.98099L18.8095 10.3943C19.7854 11.2099 20.4473 11.7659 20.8555 12.2297C21.2548 12.6835 21.2669 12.8883 21.2417 13.0212C21.2144 13.1655 21.1121 13.37 20.5559 13.6851C19.9944 14.0032 19.1596 14.3308 17.9416 14.8059L17.3232 15.047L17.2158 15.0888L17.2158 15.0888C16.6426 15.3116 16.1645 15.4974 15.7978 15.856C15.4314 16.2142 15.2341 16.6883 14.9971 17.2578L14.9526 17.3645L14.696 17.9789C14.1907 19.1888 13.8421 20.0186 13.5102 20.5742C13.1807 21.1258 12.9746 21.2213 12.8336 21.2443C12.7051 21.2653 12.5038 21.2503 12.0622 20.8367C11.6114 20.4145 11.0756 19.7351 10.2898 18.7336L9.8916 18.2262L9.81895 18.1334C9.45505 17.6681 9.13832 17.2631 8.68271 17.0286C8.22933 16.7953 7.71334 16.7695 7.11533 16.7397L6.99598 16.7337L6.34288 16.7001C5.05489 16.6338 4.17649 16.5866 3.56323 16.4618C2.95581 16.3382 2.83727 16.1824 2.78899 16.0812C2.73662 15.9715 2.69289 15.7629 2.97268 15.1814C3.25282 14.5991 3.75468 13.8479 4.48792 12.7552L4.86023 12.2004L4.92597 12.1026C5.27033 11.5908 5.55851 11.1625 5.65337 10.6614C5.74902 10.1562 5.63303 9.6582 5.49647 9.07193L5.47044 8.95994L5.32339 8.32479C5.0335 7.07259 4.83759 6.2174 4.78789 5.588C4.73912 4.97056 4.85001 4.77514 4.95978 4.6678C5.06855 4.56145 5.26347 4.45577 5.87493 4.52102C6.49925 4.58764 7.34449 4.80692 8.58349 5.13148L9.21179 5.29606L9.32322 5.32536C9.90236 5.47793 10.3969 5.60819 10.9044 5.52533C11.4074 5.44321 11.8424 5.16465 12.3603 4.83306L12.46 4.76929L13.0222 4.41033ZM17.0569 1.46006C16.3259 1.08387 15.568 1.26669 14.8586 1.58774C14.1615 1.90321 13.3094 2.44724 12.2677 3.1124L11.6528 3.505C10.9803 3.93435 10.8209 4.01911 10.6627 4.04493C10.5094 4.06996 10.3443 4.04213 9.59189 3.84502L8.90166 3.66421L8.90165 3.66421C7.74011 3.35991 6.78457 3.10957 6.03409 3.02949C5.25746 2.94661 4.49761 3.02181 3.9111 3.5953C3.3256 4.1678 3.23094 4.92605 3.29254 5.70609C3.35216 6.46095 3.57569 7.42638 3.8477 8.60117L4.00909 9.29826C4.18499 10.0581 4.20901 10.2268 4.17955 10.3824C4.14925 10.5425 4.05958 10.7016 3.61468 11.3645L3.20772 11.971C2.5176 12.9994 1.95346 13.84 1.62099 14.531C1.28264 15.2343 1.08195 15.9869 1.43522 16.7272C1.79259 17.4762 2.50797 17.7778 3.26417 17.9317C4.0014 18.0817 4.99403 18.1327 6.20121 18.1948L6.91893 18.2317C7.70459 18.2721 7.86754 18.2961 7.99627 18.3624C8.12263 18.4274 8.23214 18.5412 8.71151 19.1521L9.15017 19.7112L9.15021 19.7112C9.88525 20.6481 10.4916 21.4209 11.0368 21.9315C11.6012 22.4601 12.2577 22.8582 13.0753 22.7247C13.8802 22.5933 14.395 22.018 14.7979 21.3435C15.1918 20.6841 15.5807 19.7529 16.0563 18.614L16.0563 18.614L16.3367 17.9425C16.6427 17.21 16.7261 17.0462 16.8465 16.9285C16.9665 16.8111 17.1308 16.7321 17.8682 16.4445L18.4866 16.2033L18.5444 16.1808L18.5444 16.1808C19.6905 15.7339 20.6281 15.3682 21.2954 14.9902C21.9791 14.6028 22.5639 14.1014 22.7156 13.3002C22.8694 12.4875 22.4931 11.8201 21.9815 11.2388C21.4878 10.6777 20.7347 10.0483 19.8217 9.28536L19.277 8.83004C18.682 8.33278 18.5713 8.21964 18.5095 8.09016C18.4462 7.95738 18.4267 7.79089 18.4075 7.00176L18.3899 6.28086C18.3604 5.06675 18.3361 4.06949 18.2066 3.32607C18.0741 2.5652 17.794 1.83944 17.0569 1.46006ZM19.5303 18.47C19.2374 18.1771 18.7625 18.1771 18.4696 18.47C18.1767 18.7629 18.1767 19.2378 18.4696 19.5307L20.4696 21.5307C20.7625 21.8236 21.2374 21.8236 21.5303 21.5307C21.8232 21.2378 21.8232 20.7629 21.5303 20.47L19.5303 18.47Z" fill="#1C274C"/>
</svg>
