<svg width="24" height="24" viewBox="0 0 24 24" fill="none" xmlns="http://www.w3.org/2000/svg">
<path fill-rule="evenodd" clip-rule="evenodd" d="M15.0922 1.25H8.90763C7.33837 1.24998 6.08008 1.24996 5.10553 1.38767C4.09778 1.53007 3.25955 1.83575 2.64194 2.55292C2.02433 3.27008 1.84637 4.14438 1.85504 5.1621C1.86342 6.1463 2.05009 7.39066 2.28289 8.94256L3.49913 17.0508C3.67562 18.2275 3.81854 19.1804 4.02824 19.9262C4.24658 20.7027 4.56021 21.3453 5.13638 21.8415C5.71255 22.3377 6.3946 22.5525 7.19489 22.6533C7.96352 22.75 8.92708 22.75 10.117 22.75H13.8828C15.0727 22.75 16.0363 22.75 16.8049 22.6533C17.6052 22.5525 18.2873 22.3377 18.8634 21.8415C19.4396 21.3453 19.7532 20.7027 19.9716 19.9262C20.1813 19.1805 20.3242 18.2276 20.5007 17.0509L21.7169 8.94253C21.9497 7.39065 22.1364 6.14629 22.1448 5.1621C22.1534 4.14438 21.9755 3.27008 21.3579 2.55292C20.7403 1.83575 19.902 1.53007 18.8943 1.38767C17.9197 1.24996 16.6614 1.24998 15.0922 1.25ZM3.77855 3.53175C4.05858 3.20658 4.47903 2.9911 5.3154 2.87292C6.17271 2.75177 7.32455 2.75 8.96703 2.75H15.0328C16.6753 2.75 17.8271 2.75177 18.6844 2.87292C19.5208 2.9911 19.9412 3.20658 20.2213 3.53175C20.5013 3.85692 20.652 4.30468 20.6448 5.14933C20.6445 5.18248 20.644 5.21604 20.6433 5.25H20.5002C20.5 5.25 20.5004 5.25 20.5002 5.25H7.00021C7.00001 5.25 7.00041 5.25 7.00021 5.25H3.35653C3.35578 5.21603 3.35526 5.18248 3.35498 5.14933C3.34779 4.30468 3.49852 3.85692 3.77855 3.53175ZM5.18925 6.75H3.48522C3.53663 7.15852 3.60137 7.61096 3.67607 8.1155L3.74991 8.18934L5.18925 6.75ZM4.04989 10.6106L4.66836 14.7338L6.37575 12.9365L4.04989 10.6106ZM5.15634 17.9593C5.1725 18.0594 5.18848 18.1563 5.20438 18.25H5.39863L5.15634 17.9593ZM6.99502 19.75C6.99855 19.75 7.00207 19.75 7.0056 19.75H13.997C13.9988 19.75 14.0006 19.75 14.0025 19.75H18.4575C18.2988 20.2287 18.1174 20.5044 17.8846 20.7049C17.6168 20.9355 17.2607 21.0841 16.6176 21.165C15.9535 21.2486 15.0847 21.25 13.8328 21.25H10.167C8.91513 21.25 8.04627 21.2486 7.38223 21.165C6.73909 21.0841 6.38297 20.9355 6.11521 20.7049C5.88241 20.5044 5.70103 20.2287 5.54231 19.75H6.99502ZM15.7129 18.25H18.1892L16.9015 16.9623L15.7129 18.25ZM19.0005 16.9399C19.0085 16.8869 19.0165 16.8332 19.0247 16.7788L19.4038 14.2515L17.9198 15.8592L19.0005 16.9399ZM19.8558 11.2381L20.2247 8.77879C20.3195 8.14673 20.403 7.5881 20.4701 7.09045L18.1598 9.40079L19.8558 11.2381ZM18.6892 6.75H15.7129L17.1415 8.2977L18.6892 6.75ZM12.2529 6.75H8.81057L10.5759 8.51531L12.2529 6.75ZM11.6892 18.25H9.31057L10.4999 17.0607L11.6892 18.25ZM7.40921 11.8486L4.81057 9.25L6.99991 7.06066L9.54242 9.60317L7.40921 11.8486ZM8.47022 12.9097L10.6034 10.6642L12.6892 12.75L10.4999 14.9393L8.47022 12.9097ZM11.5606 16L13.7499 13.8107L15.84 15.9008L13.7383 18.1777L11.5606 16ZM14.8106 12.75L16.8583 14.7977L18.9792 12.5L17.0983 10.4623L14.8106 12.75ZM13.7499 11.6893L16.08 9.35921L13.992 7.09721L11.6369 9.57632L13.7499 11.6893ZM7.43676 13.9975L9.43925 16L7.27758 18.1617L5.50339 16.0326L7.43676 13.9975Z" fill="#1C274C"/>
</svg>
