<svg width="24" height="24" viewBox="0 0 24 24" fill="none" xmlns="http://www.w3.org/2000/svg">
<path fill-rule="evenodd" clip-rule="evenodd" d="M12 2.75C6.89137 2.75 2.75 6.89137 2.75 12C2.75 17.1086 6.89137 21.25 12 21.25C17.1086 21.25 21.25 17.1086 21.25 12C21.25 6.89137 17.1086 2.75 12 2.75ZM1.25 12C1.25 6.06294 6.06294 1.25 12 1.25C17.9371 1.25 22.75 6.06294 22.75 12C22.75 17.9371 17.9371 22.75 12 22.75C6.06294 22.75 1.25 17.9371 1.25 12Z" fill="#1C274D"/>
<path fill-rule="evenodd" clip-rule="evenodd" d="M14.9849 7.40503L16.6067 9.02844C17.0951 9.51732 17.5202 9.94279 17.7997 10.32C18.0948 10.7182 18.3445 11.2155 18.2156 11.8114C18.0868 12.4074 17.6538 12.757 17.2205 12.9975C16.8101 13.2253 16.2472 13.4367 15.6006 13.6796L14.5887 14.0598C14.1652 14.2189 14.1342 14.2423 14.1165 14.2576C14.0982 14.2734 14.0819 14.2913 14.0678 14.3109C14.054 14.3302 14.0335 14.3634 13.9134 14.8L13.9027 14.839C13.7923 15.2402 13.693 15.6012 13.5816 15.8789C13.4671 16.164 13.285 16.5099 12.9184 16.7192C12.6848 16.8524 12.4204 16.9224 12.1515 16.922C11.7292 16.9213 11.3999 16.7105 11.1596 16.5191C10.9256 16.3327 10.6611 16.0678 10.3672 15.7736L9.82669 15.2326L8.0306 17.0305C7.73786 17.3235 7.26298 17.3238 6.96994 17.031C6.6769 16.7383 6.67666 16.2634 6.9694 15.9704L8.76657 14.1714L8.25181 13.6561C7.95974 13.3638 7.69683 13.1006 7.5116 12.8679C7.32137 12.6289 7.11189 12.302 7.10925 11.8828C7.10752 11.6089 7.17862 11.3395 7.31531 11.1022C7.52462 10.7387 7.86833 10.5579 8.15177 10.4441C8.42772 10.3334 8.7862 10.2346 9.18436 10.1248C9.19726 10.1213 9.2102 10.1177 9.22318 10.1141C9.66055 9.99354 9.6936 9.97301 9.71263 9.95931C9.73271 9.94486 9.75099 9.92801 9.76708 9.90914C9.78243 9.89112 9.80569 9.85957 9.96188 9.43328L10.3091 8.48558C10.3157 8.46765 10.3222 8.44977 10.3287 8.43197C10.5684 7.77781 10.7767 7.20907 11.0024 6.79427C11.2403 6.35706 11.5883 5.91817 12.187 5.78606C12.786 5.65392 13.2862 5.90583 13.6858 6.20252C14.0649 6.48394 14.4928 6.91236 14.9849 7.40503ZM12.5123 7.25044C12.5119 7.2505 12.5112 7.25061 12.5102 7.25083C12.5081 7.25129 12.5075 7.25156 12.5079 7.25142C12.5081 7.25131 12.5083 7.25128 12.5079 7.25142C12.5076 7.25156 12.5064 7.2523 12.5032 7.25465C12.5 7.25703 12.4947 7.26121 12.4875 7.26801C12.4554 7.2982 12.3989 7.36614 12.32 7.51123C12.1539 7.81645 11.9826 8.27809 11.7175 9.00162L11.3703 9.94932C11.3615 9.97343 11.3527 9.99766 11.3438 10.022C11.2352 10.3207 11.1221 10.6317 10.9087 10.8821C10.8144 10.9928 10.7071 11.0917 10.589 11.1766C10.322 11.3689 10.0027 11.4561 9.69638 11.5398C9.67144 11.5466 9.64659 11.5534 9.62186 11.5602C9.17241 11.6841 8.89793 11.761 8.71061 11.8362C8.67993 11.8485 8.65547 11.8593 8.63622 11.8685C8.64848 11.8861 8.66449 11.9077 8.68524 11.9338C8.81105 12.0919 9.01182 12.2945 9.34144 12.6244L11.3998 14.6849C11.7315 15.0169 11.9352 15.2192 12.0941 15.3457C12.1193 15.3658 12.1404 15.3814 12.1577 15.3936C12.1668 15.3744 12.1774 15.3502 12.1895 15.3201C12.2653 15.1314 12.3426 14.8548 12.4672 14.402C12.4739 14.3774 12.4807 14.3526 12.4875 14.3277C12.5709 14.0218 12.6577 13.7032 12.8491 13.4365C12.9317 13.3214 13.0275 13.2164 13.1345 13.1237C13.3828 12.9087 13.6922 12.7933 13.989 12.6826C14.0131 12.6736 14.0372 12.6646 14.0611 12.6556L15.0197 12.2955C15.7354 12.0266 16.1914 11.8531 16.4926 11.686C16.6356 11.6066 16.7025 11.55 16.7322 11.518C16.7452 11.5039 16.7488 11.497 16.7489 11.4969C16.749 11.4965 16.7493 11.4955 16.7495 11.4944C16.7498 11.4932 16.7499 11.4924 16.75 11.492C16.7499 11.4917 16.7495 11.4835 16.7435 11.4654C16.7296 11.4239 16.692 11.3446 16.5946 11.2131C16.3893 10.9361 16.0457 10.5894 15.5052 10.0483L13.9641 8.50558C13.4197 7.96062 13.0705 7.61388 12.7917 7.40688C12.6591 7.30849 12.5795 7.27068 12.5378 7.25682C12.5284 7.25371 12.5219 7.25213 12.518 7.25134C12.5147 7.25068 12.5129 7.25049 12.5123 7.25044Z" fill="#1C274C"/>
</svg>
