<svg width="24" height="24" viewBox="0 0 24 24" fill="none" xmlns="http://www.w3.org/2000/svg">
<path fill-rule="evenodd" clip-rule="evenodd" d="M22.75 8C22.75 8.41421 22.4142 8.75 22 8.75H17C16.5858 8.75 16.25 8.41421 16.25 8C16.25 7.58579 16.5858 7.25 17 7.25L22 7.25C22.4142 7.25 22.75 7.58579 22.75 8Z" fill="#1C274C"/>
<path fill-rule="evenodd" clip-rule="evenodd" d="M22.75 12.5C22.75 12.9142 22.4142 13.25 22 13.25H18C17.5858 13.25 17.25 12.9142 17.25 12.5C17.25 12.0858 17.5858 11.75 18 11.75H22C22.4142 11.75 22.75 12.0858 22.75 12.5Z" fill="#1C274C"/>
<path fill-rule="evenodd" clip-rule="evenodd" d="M13.7605 7.29175L14.1966 7.72786C14.932 8.46324 15.5319 9.06314 15.9422 9.58466C16.3622 10.1187 16.6764 10.6825 16.6759 11.3484C16.6756 11.721 16.5996 12.0895 16.4525 12.4318C16.1896 13.0436 15.678 13.4373 15.081 13.7616C14.498 14.0783 13.7098 14.392 12.7435 14.7766L12.5521 14.8527C11.9399 15.0964 11.7791 15.1684 11.6557 15.2662C11.5467 15.3525 11.4528 15.4565 11.378 15.5737C11.2934 15.7065 11.2382 15.8738 11.0583 16.5077L11.0484 16.5423C10.927 16.9702 10.8212 17.343 10.7083 17.6313C10.5933 17.9248 10.427 18.2538 10.1137 18.4835C9.75352 18.7476 9.306 18.864 8.8628 18.8088C8.47725 18.7608 8.17174 18.5546 7.92839 18.3543C7.68926 18.1575 7.41531 17.8835 7.10076 17.5689L6.04035 16.5085L3.87701 18.6718C3.58412 18.9647 3.10924 18.9647 2.81635 18.6718C2.52346 18.379 2.52346 17.9041 2.81635 17.6112L4.97969 15.4478L3.91948 14.3876C3.60488 14.0731 3.33089 13.7991 3.13408 13.56C2.93379 13.3166 2.72754 13.0111 2.67955 12.6256C2.6244 12.1824 2.74078 11.7348 3.00486 11.3747C3.2346 11.0613 3.56355 10.895 3.85702 10.7801C4.14539 10.6671 4.51813 10.5614 4.9461 10.4399L4.98066 10.4301C5.61458 10.2502 5.78183 10.195 5.91462 10.1103C6.03187 10.0355 6.13582 9.94169 6.22218 9.83268C6.31999 9.70923 6.39195 9.54848 6.63562 8.93623L6.71176 8.74492C7.09632 7.77862 7.41003 6.99036 7.72677 6.40732C8.05109 5.81034 8.44472 5.29873 9.05655 5.03585C9.39882 4.88879 9.7674 4.8128 10.1399 4.8125C10.8058 4.81196 11.3697 5.12617 11.9037 5.54621C12.4252 5.95642 13.0251 6.55635 13.7605 7.29175ZM8.13601 16.4828L6.57938 14.9262L6.57075 14.9174L6.56198 14.9088L5.00552 13.3524C4.65811 13.0049 4.43708 12.7827 4.29225 12.6068C4.20301 12.4983 4.17434 12.4436 4.16681 12.4275C4.16283 12.3727 4.17704 12.3181 4.20723 12.2722C4.22164 12.2618 4.27332 12.228 4.40407 12.1768C4.61629 12.0936 4.91757 12.0073 5.39021 11.8731L5.47823 11.8482C5.98238 11.7055 6.37913 11.5932 6.72126 11.375C6.97922 11.2104 7.20791 11.004 7.39791 10.7642C7.64991 10.4461 7.80211 10.0629 7.99551 9.57592L8.0872 9.3454C8.49446 8.32214 8.77597 7.61825 9.04482 7.12338C9.31108 6.63327 9.4985 6.47855 9.64869 6.41402C9.80427 6.34718 9.97181 6.31264 10.1411 6.3125C10.3046 6.31237 10.5379 6.38034 10.9763 6.72518C11.419 7.07337 11.9559 7.60852 12.7347 8.38728L13.1011 8.75366C13.8798 9.53242 14.415 10.0694 14.7632 10.512C15.108 10.9504 15.176 11.1838 15.1759 11.3472C15.1757 11.5166 15.1412 11.6841 15.0743 11.8397C15.0098 11.9899 14.8551 12.1773 14.365 12.4435C13.8701 12.7124 13.1662 12.9939 12.143 13.4012L11.9124 13.4929C11.4255 13.6862 11.0423 13.8385 10.7242 14.0905C10.4844 14.2805 10.2779 14.5091 10.1134 14.7671C9.89518 15.1092 9.78288 15.506 9.64019 16.0101L9.61525 16.0982C9.48111 16.5708 9.39472 16.8721 9.3116 17.0843C9.26039 17.215 9.22661 17.2667 9.21621 17.2811C9.17027 17.3113 9.11564 17.3255 9.06082 17.3215C9.04472 17.314 8.99004 17.2854 8.88161 17.1961C8.70564 17.0513 8.48342 16.8303 8.13601 16.4828Z" fill="#1C274C"/>
<path d="M21.9999 17.7495C22.4141 17.7495 22.7499 17.4137 22.7499 16.9995C22.7499 16.5853 22.4141 16.2495 21.9999 16.2495H12.9999C12.5857 16.2495 12.2499 16.5853 12.2499 16.9995C12.2499 17.4137 12.5857 17.7495 12.9999 17.7495H21.9999Z" fill="#1C274C"/>
</svg>
