<svg width="24" height="24" viewBox="0 0 24 24" fill="none" xmlns="http://www.w3.org/2000/svg">
<path fill-rule="evenodd" clip-rule="evenodd" d="M7.84749 1.25C7.8622 1.25 7.87695 1.25001 7.89175 1.25001L16.1526 1.25C16.5986 1.24996 17.0038 1.24991 17.3327 1.29296C17.6919 1.33999 18.0712 1.45011 18.3849 1.75553C18.7014 2.06368 18.8182 2.44094 18.8678 2.80014C18.9126 3.1243 18.9125 3.52236 18.9125 3.95444L18.9125 5.38934L22.6374 17.7362C22.9335 18.7175 22.6514 19.8725 21.6514 20.4724C20.1188 21.392 17.0035 22.75 12 22.75C6.99654 22.75 3.88132 21.392 2.34868 20.4724C1.34873 19.8725 1.06663 18.7175 1.36267 17.7362L5.0876 5.38934V4.00001C5.0876 3.98478 5.0876 3.96958 5.0876 3.95444C5.08754 3.52236 5.08749 3.1243 5.13225 2.80014C5.18185 2.44094 5.29873 2.06368 5.61522 1.75553C5.92892 1.45011 6.30816 1.33999 6.66742 1.29296C6.99628 1.24991 7.40143 1.24996 7.84749 1.25ZM6.39472 6.25001L2.79874 18.1695C2.66292 18.6197 2.81578 19.0034 3.12041 19.1862C3.90982 19.6598 5.25546 20.3103 7.22889 20.7535L9.03449 6.25001H6.39472ZM10.5461 6.25001L8.70679 21.0241C9.68328 21.1645 10.7791 21.25 12 21.25C13.221 21.25 14.3168 21.1645 15.2933 21.0241L13.454 6.25001H10.5461ZM14.9656 6.25001L16.7712 20.7535C18.7446 20.3103 20.0903 19.6598 20.8797 19.1862C21.1843 19.0034 21.3372 18.6197 21.2013 18.1695L17.6054 6.25001H14.9656ZM17.4125 4.75001V4.00001C17.4125 3.50684 17.4108 3.21443 17.3819 3.00533C17.3688 2.90991 17.3534 2.86299 17.3447 2.84254C17.3427 2.8378 17.3412 2.83473 17.3402 2.833L17.3389 2.83074C17.3388 2.83062 17.3391 2.83094 17.3389 2.83074C17.3379 2.82976 17.3371 2.82902 17.3362 2.82843C17.335 2.8277 17.3299 2.82451 17.3181 2.81979C17.2922 2.80944 17.2393 2.79354 17.138 2.78027C16.9183 2.75152 16.6132 2.75001 16.1083 2.75001H7.89175C7.38692 2.75001 7.08179 2.75152 6.86211 2.78027C6.76076 2.79354 6.70784 2.80944 6.682 2.81979C6.67022 2.82451 6.66506 2.8277 6.66391 2.82843C6.66299 2.82902 6.66263 2.82928 6.66162 2.83026C6.66142 2.83046 6.66174 2.83014 6.66162 2.83026L6.65984 2.833C6.65891 2.83473 6.65737 2.8378 6.65536 2.84254C6.64672 2.86299 6.63133 2.90991 6.61815 3.00533C6.58928 3.21443 6.5876 3.50684 6.5876 4.00001V4.75001H17.4125Z" fill="#1C274C"/>
</svg>
