<svg width="24" height="24" viewBox="0 0 24 24" fill="none" xmlns="http://www.w3.org/2000/svg">
<path d="M9.87774 4.24993C10.187 3.37503 11.0214 2.75 11.9999 2.75C12.9784 2.75 13.8128 3.37503 14.1221 4.24993C14.2601 4.64047 14.6886 4.84517 15.0791 4.70713C15.4697 4.56909 15.6744 4.1406 15.5363 3.75007C15.0219 2.29459 13.6339 1.25 11.9999 1.25C10.366 1.25 8.97792 2.29459 8.46348 3.75007C8.32545 4.1406 8.53014 4.56909 8.92068 4.70713C9.31122 4.84517 9.73971 4.64047 9.87774 4.24993Z" fill="#1C274C"/>
<path d="M2.74988 6C2.74988 5.58579 3.08566 5.25 3.49988 5.25H20.5C20.9142 5.25 21.25 5.58579 21.25 6C21.25 6.41421 20.9142 6.75 20.5 6.75H3.49988C3.08566 6.75 2.74988 6.41421 2.74988 6Z" fill="#1C274C"/>
<path d="M5.11673 7.75166C5.53003 7.72411 5.88741 8.03681 5.91496 8.45011L6.3749 15.3492C6.46476 16.6971 6.52879 17.6349 6.66936 18.3405C6.80571 19.025 6.99604 19.3873 7.26945 19.6431C7.54287 19.8988 7.91702 20.0647 8.60903 20.1552C9.32243 20.2485 10.2624 20.25 11.6133 20.25H12.3866C13.7375 20.25 14.6775 20.2485 15.3909 20.1552C16.0829 20.0647 16.457 19.8988 16.7305 19.6431C17.0039 19.3873 17.1942 19.025 17.3306 18.3405C17.4711 17.6349 17.5352 16.6971 17.625 15.3492L18.085 8.45011C18.1125 8.03681 18.4699 7.72411 18.8832 7.75166C19.2965 7.77921 19.6092 8.13659 19.5816 8.54989L19.1182 15.5016C19.0327 16.7844 18.9636 17.8205 18.8017 18.6336C18.6333 19.4789 18.3468 20.185 17.7552 20.7384C17.1636 21.2919 16.4401 21.5307 15.5854 21.6425C14.7634 21.75 13.725 21.75 12.4394 21.75H11.5605C10.275 21.75 9.23651 21.75 8.41447 21.6425C7.55982 21.5307 6.83627 21.2919 6.24468 20.7384C5.65308 20.185 5.36666 19.4789 5.19826 18.6336C5.03629 17.8205 4.96723 16.7844 4.88173 15.5016L4.41829 8.54989C4.39073 8.13659 4.70344 7.77921 5.11673 7.75166Z" fill="#1C274C"/>
</svg>
