<svg width="24" height="24" viewBox="0 0 24 24" fill="none" xmlns="http://www.w3.org/2000/svg">
<path d="M11.9999 2.75C11.0214 2.75 10.187 3.37503 9.87774 4.24993C9.73971 4.64047 9.31122 4.84517 8.92068 4.70713C8.53014 4.56909 8.32545 4.1406 8.46348 3.75007C8.97792 2.29459 10.366 1.25 11.9999 1.25C13.6339 1.25 15.0219 2.29459 15.5363 3.75007C15.6744 4.1406 15.4697 4.56909 15.0791 4.70713C14.6886 4.84517 14.2601 4.64047 14.1221 4.24993C13.8128 3.37503 12.9784 2.75 11.9999 2.75Z" fill="#1C274C"/>
<path d="M2.74988 6C2.74988 5.58579 3.08566 5.25 3.49988 5.25H20.5C20.9142 5.25 21.25 5.58579 21.25 6C21.25 6.41421 20.9142 6.75 20.5 6.75H3.49988C3.08566 6.75 2.74988 6.41421 2.74988 6Z" fill="#1C274C"/>
<path d="M5.91496 8.45011C5.88741 8.03681 5.53003 7.72411 5.11673 7.75166C4.70344 7.77921 4.39073 8.13659 4.41829 8.54989L4.88173 15.5016C4.96723 16.7844 5.03629 17.8205 5.19826 18.6336C5.36666 19.4789 5.65308 20.185 6.24468 20.7384C6.83627 21.2919 7.55982 21.5307 8.41447 21.6425C9.23651 21.75 10.275 21.75 11.5605 21.75H12.4394C13.725 21.75 14.7634 21.75 15.5854 21.6425C16.4401 21.5307 17.1636 21.2919 17.7552 20.7384C18.3468 20.185 18.6333 19.4789 18.8017 18.6336C18.9636 17.8205 19.0327 16.7844 19.1182 15.5016L19.5816 8.54989C19.6092 8.13659 19.2965 7.77921 18.8832 7.75166C18.4699 7.72411 18.1125 8.03681 18.085 8.45011L17.625 15.3492C17.5352 16.6971 17.4711 17.6349 17.3306 18.3405C17.1942 19.025 17.0039 19.3873 16.7305 19.6431C16.457 19.8988 16.0829 20.0647 15.3909 20.1552C14.6775 20.2485 13.7375 20.25 12.3866 20.25H11.6133C10.2624 20.25 9.32243 20.2485 8.60903 20.1552C7.91702 20.0647 7.54287 19.8988 7.26945 19.6431C6.99604 19.3873 6.80571 19.025 6.66936 18.3405C6.52879 17.6349 6.46476 16.6971 6.3749 15.3492L5.91496 8.45011Z" fill="#1C274C"/>
<path d="M9.42534 10.2537C9.83749 10.2125 10.205 10.5132 10.2462 10.9254L10.7462 15.9254C10.7875 16.3375 10.4868 16.7051 10.0746 16.7463C9.66244 16.7875 9.2949 16.4868 9.25369 16.0746L8.75369 11.0746C8.71247 10.6625 9.01318 10.2949 9.42534 10.2537Z" fill="#1C274C"/>
<path d="M15.2462 11.0746C15.2875 10.6625 14.9868 10.2949 14.5746 10.2537C14.1624 10.2125 13.7949 10.5132 13.7537 10.9254L13.2537 15.9254C13.2125 16.3375 13.5132 16.7051 13.9253 16.7463C14.3375 16.7875 14.705 16.4868 14.7462 16.0746L15.2462 11.0746Z" fill="#1C274C"/>
</svg>
