<svg width="24" height="24" viewBox="0 0 24 24" fill="none" xmlns="http://www.w3.org/2000/svg">
<path fill-rule="evenodd" clip-rule="evenodd" d="M9.25961 3.09899C9.6636 2.08817 10.9948 1.46319 12.0272 2.24963C13.7471 3.55978 15.9044 5.48593 17.6398 7.68907C19.3595 9.8724 20.75 12.4352 20.75 15.0004C20.75 17.2937 20.0398 18.9979 19.0117 20.2184C17.9933 21.4274 16.6994 22.1197 15.5816 22.4675C15.0076 22.6462 14.4825 22.3829 14.2275 21.955C13.9871 21.5516 13.9859 21.0152 14.2863 20.5835C15.1436 19.3515 16.05 17.5797 16.05 16.0004C16.05 15.2169 15.7123 14.2894 15.1668 13.3376C14.7566 12.6219 14.2539 11.9355 13.7643 11.3469C13.6627 12.7498 13.3578 14.5125 12.412 15.97C11.9822 16.6323 11.0267 16.7064 10.518 16.0631C10.3592 15.8622 10.2023 15.6416 10.0588 15.4397C10.0501 15.4276 10.0415 15.4155 10.033 15.4035C9.9545 15.2931 9.87986 15.1886 9.80763 15.0904C9.12187 15.7735 8.48333 16.5906 8.48333 17.5004C8.48333 18.3042 8.88448 19.4029 9.35898 20.3339C9.61561 20.8374 9.50832 21.3955 9.1994 21.761C8.87092 22.1497 8.27312 22.3495 7.70569 22.021C5.76159 20.8957 3.25 18.4921 3.25 15.0004C3.25 14.0535 3.57109 13.074 4.0203 12.1172C4.47254 11.154 5.0858 10.1504 5.72984 9.14782C5.95297 8.80047 6.17941 8.45349 6.40546 8.10711C7.51002 6.41454 8.60528 4.73622 9.25961 3.09899ZM10.8983 3.41786C10.7958 3.45335 10.6992 3.53889 10.6525 3.65567C9.93718 5.44546 8.74008 7.27756 7.63532 8.96832C7.41569 9.30446 7.19971 9.635 6.99189 9.95852C6.35264 10.9536 5.78547 11.8871 5.3781 12.7547C4.96769 13.6288 4.75 14.3741 4.75 15.0004C4.75 17.2949 6.15653 19.0766 7.63307 20.1786C7.27845 19.3375 6.98333 18.3674 6.98333 17.5004C6.98333 15.7698 8.2827 14.4633 9.00894 13.7756C9.47929 13.3303 10.2914 13.2903 10.7647 13.8745C10.9359 14.0858 11.1032 14.3202 11.2553 14.534L11.2734 14.5594C11.3161 14.6194 11.3576 14.6779 11.3983 14.7346C12.0671 13.4603 12.2543 11.906 12.3012 10.6267C12.3204 10.1002 12.6468 9.68387 13.0747 9.50978C13.5118 9.33196 14.0549 9.4103 14.4285 9.82362L13.8721 10.3265L14.4285 9.82362C15.0949 10.5609 15.8626 11.5352 16.4682 12.5917C17.0657 13.6341 17.55 14.8333 17.55 16.0004C17.55 17.693 16.7822 19.4105 16.0062 20.6889C16.6582 20.3696 17.3159 19.9033 17.8644 19.2521C18.6512 18.3181 19.25 16.9616 19.25 15.0004C19.25 12.9438 18.1125 10.7135 16.4614 8.61722C14.8259 6.54076 12.7696 4.70076 11.1183 3.44285C11.0636 3.40122 10.993 3.38509 10.8983 3.41786Z" fill="#1C274C"/>
</svg>
