<svg width="24" height="24" viewBox="0 0 24 24" fill="none" xmlns="http://www.w3.org/2000/svg">
<path fill-rule="evenodd" clip-rule="evenodd" d="M7.58654 3.10761C7.18915 3.41081 6.71879 3.87892 6.022 4.5757L4.57571 6.022C3.87892 6.71878 3.41081 7.18914 3.10761 7.58654C2.81762 7.96662 2.75001 8.19057 2.75001 8.38426C2.75001 8.57795 2.81762 8.8019 3.10761 9.18198C3.41081 9.57937 3.87892 10.0497 4.57571 10.7465C4.8686 11.0394 4.8686 11.5143 4.57571 11.8072C4.28281 12.1001 3.80794 12.1001 3.51505 11.8072L3.47814 11.7703C2.82778 11.12 2.28667 10.5789 1.91508 10.0919C1.52329 9.57835 1.25001 9.03779 1.25001 8.38426C1.25001 7.73073 1.52329 7.19018 1.91508 6.67666C2.28667 6.18964 2.82778 5.64856 3.47815 4.99824C3.49041 4.98598 3.50271 4.97368 3.51505 4.96134L4.96134 3.51504C4.97368 3.50271 4.98598 3.49041 4.99823 3.47815C5.64856 2.82778 6.18964 2.28666 6.67667 1.91508C7.19018 1.52328 7.73074 1.25 8.38427 1.25C9.0378 1.25 9.57835 1.52328 10.0919 1.91508C10.5789 2.28666 11.12 2.82778 11.7703 3.47814L11.8072 3.51504C11.9478 3.65569 12.0269 3.84646 12.0269 4.04537C12.0269 4.24428 11.9478 4.43505 11.8072 4.5757L9.3967 6.98619C9.1038 7.27909 8.62893 7.27909 8.33604 6.98619C8.04314 6.6933 8.04314 6.21843 8.33604 5.92553L10.215 4.04659C9.79405 3.63157 9.46899 3.32658 9.18199 3.10761C8.80191 2.81761 8.57796 2.75 8.38427 2.75C8.19057 2.75 7.96662 2.81762 7.58654 3.10761ZM19.9546 11.9731C20.1535 11.9731 20.3443 12.0522 20.485 12.1928L20.5219 12.2297C21.1722 12.88 21.7133 13.4211 22.0849 13.9081C22.4767 14.4217 22.75 14.9622 22.75 15.6157C22.75 16.2693 22.4767 16.8098 22.0849 17.3233C21.7133 17.8104 21.1722 18.3514 20.5219 19.0018L19.0017 20.5219C18.3514 21.1722 17.8104 21.7133 17.3233 22.0849C16.8098 22.4767 16.2693 22.75 15.6157 22.75C14.9622 22.75 14.4217 22.4767 13.9081 22.0849C13.4211 21.7133 12.88 21.1722 12.2297 20.5219L12.1928 20.485C11.8999 20.1921 11.8999 19.7172 12.1928 19.4243C12.4857 19.1314 12.9606 19.1314 13.2535 19.4243C13.9503 20.1211 14.4206 20.5892 14.818 20.8924C15.1981 21.1824 15.4221 21.25 15.6157 21.25C15.8094 21.25 16.0334 21.1824 16.4135 20.8924C16.8109 20.5892 17.2812 20.1211 17.978 19.4243L19.4243 17.978C20.1211 17.2812 20.5892 16.8109 20.8924 16.4135C21.1824 16.0334 21.25 15.8094 21.25 15.6157C21.25 15.422 21.1824 15.1981 20.8924 14.818C20.6734 14.531 20.3684 14.206 19.9534 13.785L18.0745 15.664C17.7816 15.9569 17.3067 15.9569 17.0138 15.664C16.7209 15.3711 16.7209 14.8962 17.0138 14.6033L19.4243 12.1928C19.565 12.0522 19.7557 11.9731 19.9546 11.9731Z" fill="#1C274C"/>
<path fill-rule="evenodd" clip-rule="evenodd" d="M14.7566 2.62145C16.5852 0.792851 19.55 0.792851 21.3786 2.62145C23.2072 4.45005 23.2072 7.41479 21.3786 9.24339L11.8933 18.7287C11.3513 19.2706 11.0323 19.5897 10.6774 19.8665C10.2591 20.1927 9.80654 20.4725 9.32765 20.7007C8.92135 20.8943 8.49332 21.037 7.76622 21.2793L4.4351 22.3897L3.63302 22.6571C2.98245 22.8739 2.26521 22.7046 1.78031 22.2197C1.29541 21.7348 1.12609 21.0175 1.34294 20.367L2.72066 16.2338C2.96301 15.5067 3.10567 15.0787 3.2993 14.6724C3.52753 14.1935 3.80726 13.7409 4.13352 13.3226C4.41033 12.9677 4.72937 12.6487 5.27135 12.1067L14.7566 2.62145ZM20.3179 3.68211C19.0751 2.4393 17.0601 2.4393 15.8173 3.68211L15.1553 4.34404C15.1895 4.519 15.2473 4.75684 15.3438 5.03487C15.561 5.66083 15.9712 6.48288 16.7442 7.25585C17.5171 8.02881 18.3392 8.43903 18.9651 8.6562C19.2432 8.75266 19.481 8.81046 19.656 8.84466L20.3179 8.18272C21.5607 6.93991 21.5607 4.92492 20.3179 3.68211ZM18.4393 10.0614C17.6506 9.78321 16.6346 9.26763 15.6835 8.31651C14.7324 7.36538 14.2168 6.34939 13.9386 5.56075L6.36916 13.1302C5.7795 13.7199 5.52957 13.9716 5.31629 14.2451C5.05702 14.5775 4.83475 14.9371 4.65339 15.3177C4.50419 15.6307 4.39078 15.9669 4.12708 16.758L3.17991 19.5995L4.40049 20.8201L7.24201 19.8729C8.03313 19.6092 8.36926 19.4958 8.68232 19.3466C9.06286 19.1653 9.42251 18.943 9.7549 18.6837C10.0284 18.4704 10.2801 18.2205 10.8698 17.6308L18.4393 10.0614Z" fill="#1C274C"/>
</svg>
