<svg width="24" height="24" viewBox="0 0 24 24" fill="none" xmlns="http://www.w3.org/2000/svg">
<path fill-rule="evenodd" clip-rule="evenodd" d="M12 1.25C9.37665 1.25 7.25 3.37665 7.25 6C7.25 8.62335 9.37665 10.75 12 10.75C14.6234 10.75 16.75 8.62335 16.75 6C16.75 3.37665 14.6234 1.25 12 1.25ZM8.75 6C8.75 4.20507 10.2051 2.75 12 2.75C13.7949 2.75 15.25 4.20507 15.25 6C15.25 7.79493 13.7949 9.25 12 9.25C10.2051 9.25 8.75 7.79493 8.75 6Z" fill="#1C274C"/>
<path d="M19.8555 14.5729C20.1527 14.8614 20.1599 15.3362 19.8714 15.6334L18.0382 17.5223C17.8901 17.6749 17.6842 17.7575 17.4717 17.7495C17.2591 17.7414 17.06 17.6436 16.9239 17.4802L16.0904 16.4802C15.8252 16.162 15.8681 15.6891 16.1863 15.4239C16.5045 15.1587 16.9774 15.2016 17.2426 15.5198L17.5424 15.8794L18.795 14.5888C19.0834 14.2915 19.5583 14.2844 19.8555 14.5729Z" fill="#1C274C"/>
<path fill-rule="evenodd" clip-rule="evenodd" d="M14.7746 12.5129C13.9019 12.3421 12.9685 12.25 12 12.25C9.68645 12.25 7.55493 12.7759 5.97545 13.6643C4.41948 14.5396 3.25 15.8661 3.25 17.5L3.24993 17.602C3.2488 18.7638 3.24739 20.222 4.52641 21.2635C5.15588 21.7761 6.03648 22.1406 7.22621 22.3815C8.41926 22.6229 9.97423 22.75 12 22.75C14.8681 22.75 16.8099 22.4961 18.1196 22.0085C19.2985 21.5697 19.9973 20.9266 20.3704 20.1172C21.7927 19.2966 22.75 17.7601 22.75 16C22.75 13.3766 20.6234 11.25 18 11.25C16.7549 11.25 15.6217 11.7291 14.7746 12.5129ZM14.75 16C14.75 14.2051 16.2051 12.75 18 12.75C19.7949 12.75 21.25 14.2051 21.25 16C21.25 17.7949 19.7949 19.25 18 19.25C16.2051 19.25 14.75 17.7949 14.75 16ZM13.7557 13.865C13.4322 14.5069 13.25 15.2322 13.25 16C13.25 18.3893 15.0141 20.3666 17.3108 20.7004C16.2401 21.0366 14.578 21.25 12 21.25C10.0258 21.25 8.58074 21.1252 7.52379 20.9113C6.46352 20.6967 5.84412 20.4022 5.47359 20.1004C4.79032 19.544 4.75 18.8078 4.75 17.5C4.75 16.6487 5.37138 15.7251 6.71084 14.9717C8.0268 14.2315 9.89527 13.75 12 13.75C12.6061 13.75 13.194 13.79 13.7557 13.865Z" fill="#1C274C"/>
</svg>
