<svg width="24" height="24" viewBox="0 0 24 24" fill="none" xmlns="http://www.w3.org/2000/svg">
<path fill-rule="evenodd" clip-rule="evenodd" d="M10.7487 3.25H13.2512C14.339 3.24998 15.2273 3.24996 15.9286 3.33976C16.6589 3.43326 17.299 3.63569 17.8142 4.12637C18.3346 4.62195 18.5541 5.24606 18.6547 5.95854C18.75 6.63353 18.75 7.48576 18.7499 8.51621V9.57285C19.1507 9.36319 19.6071 9.25 20.0731 9.25C21.7812 9.25 23.2437 10.8073 22.6023 12.5265L21.4829 15.5271C21.4751 15.548 21.4674 15.5687 21.4598 15.589C21.287 16.0524 21.1687 16.3699 21.0076 16.6478C20.51 17.5062 19.699 18.1446 18.7499 18.4812V20C18.7499 20.4142 18.4142 20.75 17.9999 20.75C17.5857 20.75 17.2499 20.4142 17.2499 20V18.7457C17.0623 18.7501 16.8493 18.75 16.5944 18.75L6.87976 18.75C6.82389 18.75 6.78808 18.75 6.75474 18.7495C6.75314 18.7495 6.75154 18.7495 6.74994 18.7495V20C6.74994 20.4142 6.41415 20.75 5.99994 20.75C5.58573 20.75 5.24994 20.4142 5.24994 20V18.6667C5.24994 18.6052 5.25733 18.5455 5.27126 18.4884C4.13005 18.0899 3.18497 17.257 2.74381 16.1336C2.73213 16.1038 2.72024 16.0719 2.70295 16.0256L1.39753 12.5265C0.756135 10.8073 2.2187 9.25 3.92683 9.25C4.39275 9.25 4.84923 9.36319 5.24994 9.57285L5.24994 8.51621C5.24991 7.48576 5.24988 6.63353 5.34517 5.95854C5.44575 5.24606 5.66528 4.62195 6.18564 4.12637C6.70085 3.63569 7.34097 3.43326 8.07123 3.33976C8.77254 3.24996 9.66091 3.24998 10.7487 3.25ZM5.24994 11.9284V12H5.27898L6.14009 14.122C6.14665 14.1382 6.15321 14.1544 6.1598 14.1707C6.23907 14.367 6.32178 14.5719 6.44856 14.7481C6.73668 15.1486 7.17285 15.412 7.64787 15.5085C7.85473 15.5505 8.07459 15.5503 8.31347 15.55C8.33138 15.55 8.34939 15.55 8.36751 15.55H15.3467C15.3821 15.55 15.4174 15.5501 15.4525 15.5501C15.9135 15.551 16.3442 15.5519 16.724 15.3953C16.9307 15.3102 17.1228 15.1908 17.2896 15.0401C17.6061 14.7543 17.7659 14.3571 17.9201 13.974C17.9325 13.9432 17.9448 13.9125 17.9572 13.882L18.7209 12H18.7499V11.9284L18.9579 11.4159C19.1047 11.0542 19.5273 10.75 20.0731 10.75C20.9933 10.75 21.3867 11.4935 21.197 12.0022L20.0775 15.0028C19.8729 15.5514 19.7993 15.7411 19.7098 15.8956C19.3126 16.5808 18.5512 17.089 17.6309 17.2184C17.4187 17.2482 17.1733 17.25 16.5331 17.25H6.88627C6.822 17.25 6.79732 17.25 6.77576 17.2497C5.53923 17.2323 4.51116 16.5304 4.14002 15.5853C4.13363 15.569 4.12649 15.55 4.10592 15.4948L2.80291 12.0022C2.61313 11.4935 3.00654 10.75 3.92683 10.75C4.47259 10.75 4.89517 11.0542 5.04197 11.4159L5.24994 11.9284ZM17.2499 11.6357V8.57143C17.2499 7.4717 17.2482 6.72607 17.1694 6.16822C17.0943 5.63584 16.9623 5.38646 16.7798 5.21257C16.592 5.03378 16.315 4.90147 15.7381 4.82761C15.1433 4.75145 14.3515 4.75 13.1999 4.75H10.7999C9.64835 4.75 8.85656 4.75145 8.26174 4.82761C7.6849 4.90147 7.40786 5.03378 7.22012 5.21258C7.03754 5.38646 6.9056 5.63584 6.83044 6.16822C6.75169 6.72607 6.74994 7.4717 6.74994 8.57143V11.6357L7.53001 13.558C7.58242 13.6871 7.61275 13.7614 7.63816 13.8168C7.65582 13.8552 7.66432 13.8692 7.6662 13.8721C7.71631 13.9418 7.81137 14.0111 7.94633 14.0385C7.98519 14.0464 8.041 14.05 8.36751 14.05H15.3467C15.9838 14.05 16.0853 14.0362 16.1525 14.0085C16.2057 13.9866 16.2498 13.958 16.2842 13.9269C16.2853 13.9259 16.3057 13.9103 16.3528 13.8179C16.4063 13.713 16.4655 13.5687 16.5673 13.318L17.2499 11.6357Z" fill="#1C274C"/>
</svg>
