<svg width="24" height="24" viewBox="0 0 24 24" fill="none" xmlns="http://www.w3.org/2000/svg">
<path fill-rule="evenodd" clip-rule="evenodd" d="M14.9363 2.99461C12.993 2.66846 11.0071 2.66846 9.06382 2.99461L8.66626 3.06134C6.80897 3.37306 5.55278 5.04814 5.77584 6.84512L5.79386 6.99034C5.81072 7.12617 5.93464 7.25 6.10724 7.25H8.9841C8.99421 7.24979 9.00435 7.24979 9.01452 7.25H14.9856C14.9957 7.24979 15.0059 7.24979 15.016 7.25H17.8929C18.0655 7.25 18.1894 7.12616 18.2062 6.99034L18.2243 6.84512L18.9686 6.93751L18.2243 6.84512C18.4473 5.04814 17.1911 3.37306 15.3338 3.06134L14.9363 2.99461ZM15.9278 8.75H17.8929C18.7977 8.75 19.5817 8.08644 19.6948 7.17512L18.9505 7.08273L19.6948 7.17511L19.7128 7.0299C20.0382 4.409 18.2051 2.02226 15.5821 1.58203L15.1846 1.5153C13.0769 1.16157 10.9232 1.16157 8.81554 1.5153L8.41798 1.58203C5.79497 2.02226 3.96193 4.40901 4.28726 7.0299L4.30529 7.17512C4.41841 8.08644 5.2024 8.75 6.10724 8.75H8.07231L6.40123 16.5484C6.30633 16.674 6.25005 16.8304 6.25005 17C6.25005 17.0574 6.25649 17.1132 6.26869 17.1669L5.2667 21.8429C5.17991 22.2479 5.43788 22.6466 5.8429 22.7334C6.24792 22.8201 6.64661 22.5622 6.7334 22.1571L7.67779 17.75H16.3223L17.2667 22.1571C17.3535 22.5622 17.7522 22.8201 18.1572 22.7334C18.5622 22.6466 18.8202 22.2479 18.7334 21.8429L17.7314 17.1669C17.7436 17.1132 17.7501 17.0574 17.7501 17C17.7501 16.8304 17.6938 16.674 17.5989 16.5484L15.9278 8.75ZM14.3937 8.75H9.60636L7.99922 16.25H16.0009L14.3937 8.75Z" fill="#1C274C"/>
</svg>
