<svg width="24" height="24" viewBox="0 0 24 24" fill="none" xmlns="http://www.w3.org/2000/svg">
<path fill-rule="evenodd" clip-rule="evenodd" d="M11.9612 1.25H12.0388C13.2175 1.24999 14.1566 1.24998 14.9174 1.32433C15.701 1.40089 16.3623 1.56105 16.967 1.92231C17.2932 2.11721 17.5949 2.35055 17.8655 2.61733C18.3671 3.11184 18.6883 3.71167 18.9593 4.45089C19.2225 5.16858 19.4585 6.07761 19.7546 7.21848L19.863 7.63604C20.2647 9.18321 20.5856 10.419 20.7046 11.4064C20.8269 12.4212 20.7562 13.3138 20.2353 14.0899C20.1416 14.2296 20.0386 14.3628 19.9269 14.4886C19.4786 14.994 18.9121 15.2871 18.25 15.4623V17C18.25 17.4142 17.9142 17.75 17.5 17.75C17.0858 17.75 16.75 17.4142 16.75 17V15.6873C15.881 15.75 14.8313 15.75 13.5866 15.75H12.75V21.25H15C15.4142 21.25 15.75 21.5858 15.75 22C15.75 22.4142 15.4142 22.75 15 22.75H8.99997C8.58576 22.75 8.24997 22.4142 8.24997 22C8.24997 21.5858 8.58576 21.25 8.99997 21.25H11.25V15.75H10.4134C8.8149 15.75 7.53812 15.75 6.55251 15.6171C5.53954 15.4805 4.69329 15.1878 4.073 14.4886C3.96139 14.3628 3.85837 14.2296 3.76463 14.0899C3.24371 13.3138 3.17301 12.4212 3.29534 11.4064C3.41437 10.419 3.73522 9.18319 4.13692 7.636L4.2453 7.21852C4.54148 6.07763 4.77748 5.16859 5.04061 4.45089C5.31163 3.71167 5.63282 3.11184 6.13444 2.61733C6.40506 2.35055 6.70672 2.11721 7.03294 1.92231C7.63763 1.56105 8.29893 1.40089 9.08253 1.32433C9.84332 1.24998 10.7825 1.24999 11.9612 1.25ZM13.5292 14.25C15.1982 14.25 16.3734 14.2484 17.247 14.1306C18.105 14.0149 18.5299 13.8031 18.8048 13.4931C18.8718 13.4176 18.9336 13.3377 18.9899 13.254C19.2207 12.91 19.319 12.4454 19.2154 11.5859C19.1099 10.7108 18.8161 9.57286 18.3968 7.95744L18.3125 7.63298C18.0044 6.44607 17.786 5.60812 17.551 4.96723C17.321 4.34 17.0969 3.966 16.8125 3.68554C16.6273 3.50301 16.4209 3.34335 16.1977 3.21C15.8547 3.00511 15.4364 2.88218 14.7715 2.81721C14.0922 2.75083 13.2262 2.75 12 2.75C10.7737 2.75 9.90777 2.75083 9.2284 2.81721C8.56351 2.88218 8.1452 3.00511 7.80226 3.21C7.57905 3.34335 7.37265 3.50301 7.18749 3.68554C6.903 3.966 6.6789 4.34 6.44894 4.96723C6.21397 5.60812 5.99557 6.44607 5.68743 7.63297L5.60319 7.95744C5.1838 9.57286 4.89006 10.7108 4.78456 11.5859C4.68094 12.4454 4.7792 12.91 5.01009 13.254C5.06633 13.3377 5.12814 13.4176 5.19511 13.4931C5.47004 13.8031 5.89497 14.0149 6.75296 14.1306C7.62653 14.2484 8.80174 14.25 10.4707 14.25H13.5292Z" fill="#1C274C"/>
</svg>
