<svg width="24" height="24" viewBox="0 0 24 24" fill="none" xmlns="http://www.w3.org/2000/svg">
<path fill-rule="evenodd" clip-rule="evenodd" d="M11.1988 2.92028C10.7812 3.04936 10.2417 3.2454 9.48774 3.51972C8.42173 3.90756 7.16774 4.28301 6.06789 4.383C5.79401 4.40789 5.59696 4.42583 5.45168 4.44117C5.37954 4.44879 5.32551 4.45523 5.28477 4.46089C5.26469 4.46369 5.24959 4.46605 5.2385 4.46797L5.2261 4.47024C5.22321 4.47081 5.2219 4.4711 5.22194 4.4711C4.88783 4.54732 4.68143 4.67546 4.54858 4.82094C4.41573 4.96641 4.3068 5.18356 4.26114 5.52321C4.25183 5.5924 4.24999 5.71936 4.24999 6.13784V14.2503H19.75V6.13784C19.75 5.71936 19.7481 5.5924 19.7388 5.52321C19.6932 5.18356 19.5842 4.96641 19.4514 4.82094C19.3185 4.67546 19.1122 4.54732 18.778 4.4711C18.7781 4.4711 18.7768 4.47081 18.7739 4.47024L18.7615 4.46797C18.7504 4.46605 18.7353 4.46369 18.7152 4.4609C18.6745 4.45523 18.6204 4.44879 18.5483 4.44117C18.403 4.42583 18.2059 4.40789 17.9321 4.383C16.8322 4.28301 15.5782 3.90756 14.5122 3.51972C13.7582 3.2454 13.2187 3.04935 12.8012 2.92028C12.3773 2.78928 12.1472 2.75 12 2.75C11.8528 2.75 11.6226 2.78928 11.1988 2.92028ZM21.25 14.2681V6.13784C21.25 6.11554 21.25 6.09362 21.25 6.07206C21.2501 5.74812 21.2502 5.50721 21.2255 5.32332C21.148 4.74702 20.9388 4.22526 20.559 3.80943C20.1793 3.3936 19.6786 3.13802 19.1117 3.00867C18.9306 2.96736 18.6175 2.93898 18.1676 2.8982C18.135 2.89525 18.1018 2.89224 18.0679 2.88916C17.1639 2.80697 16.0555 2.48499 15.0251 2.11012L15.0052 2.10288C14.2754 1.83736 13.7012 1.62846 13.2441 1.48718C12.7891 1.34654 12.3816 1.25 12 1.25C11.6184 1.25 11.2108 1.34654 10.7559 1.48718C10.2988 1.62847 9.72457 1.83737 8.99477 2.10289L8.97489 2.11012C7.94451 2.48499 6.83609 2.80697 5.93209 2.88916C5.89815 2.89224 5.86493 2.89525 5.83242 2.8982C5.38244 2.93898 5.06939 2.96735 4.88828 3.00867C4.32136 3.13802 3.82069 3.3936 3.44094 3.80943C3.0612 4.22526 2.852 4.74702 2.77451 5.32332C2.74979 5.50721 2.74987 5.74812 2.74997 6.07207C2.74998 6.09362 2.74999 6.11554 2.74999 6.13784V14.2681C1.90286 14.3894 1.2468 15.1182 1.25174 16.0046C1.25776 17.0861 1.28364 17.9875 1.41894 18.724C1.55817 19.482 1.82341 20.1271 2.34834 20.652C2.86864 21.1723 3.50548 21.4363 4.24999 21.5765V22.0003C4.24999 22.4145 4.58577 22.7503 4.99999 22.7503C5.4142 22.7503 5.74999 22.4145 5.74999 22.0003V21.7246C6.38924 21.7504 7.11875 21.7503 7.94512 21.7503H16.0549C16.8812 21.7503 17.6107 21.7504 18.25 21.7246V22.0003C18.25 22.4145 18.5858 22.7503 19 22.7503C19.4142 22.7503 19.75 22.4145 19.75 22.0003V21.5765C20.4945 21.4363 21.1313 21.1723 21.6516 20.652C22.1766 20.1271 22.4418 19.482 22.581 18.724C22.7163 17.9875 22.7422 17.0861 22.7482 16.0046C22.7532 15.1182 22.0971 14.3894 21.25 14.2681ZM12.75 20.2503H16C17.4354 20.2503 18.4365 20.2487 19.1919 20.1472C19.9256 20.0485 20.3142 19.8681 20.591 19.5913C20.8344 19.3479 21.0016 19.0198 21.1057 18.453C21.2138 17.8648 21.2422 17.0897 21.2483 15.9962C21.249 15.8635 21.1401 15.7503 21 15.7503H12.75V20.2503ZM11.25 15.7503V20.2503H7.99999C6.56457 20.2503 5.56346 20.2487 4.80811 20.1472C4.07433 20.0485 3.68576 19.8681 3.409 19.5913C3.16554 19.3479 2.99837 19.0198 2.89425 18.453C2.7862 17.8648 2.7578 17.0897 2.75171 15.9962C2.75097 15.8635 2.85986 15.7503 2.99999 15.7503H11.25ZM11.0303 6.47C11.3232 6.7629 11.3232 7.23777 11.0303 7.53066L10.0303 8.53066C9.73742 8.82356 9.26255 8.82356 8.96966 8.53066C8.67676 8.23777 8.67676 7.7629 8.96966 7.47L9.96966 6.47C10.2626 6.17711 10.7374 6.17711 11.0303 6.47ZM14.0303 7.47C14.3232 7.7629 14.3232 8.23777 14.0303 8.53066L11.0303 11.5307C10.7374 11.8236 10.2626 11.8236 9.96966 11.5307C9.67676 11.2378 9.67676 10.7629 9.96966 10.47L12.9697 7.47C13.2625 7.17711 13.7374 7.17711 14.0303 7.47ZM15.0303 10.47C15.3232 10.7629 15.3232 11.2378 15.0303 11.5307L14.0303 12.5307C13.7374 12.8236 13.2625 12.8236 12.9697 12.5307C12.6768 12.2378 12.6768 11.7629 12.9697 11.47L13.9697 10.47C14.2625 10.1771 14.7374 10.1771 15.0303 10.47ZM6.24999 18.0003C6.24999 17.5861 6.58577 17.2503 6.99999 17.2503H8.99999C9.4142 17.2503 9.74999 17.5861 9.74999 18.0003C9.74999 18.4145 9.4142 18.7503 8.99999 18.7503H6.99999C6.58577 18.7503 6.24999 18.4145 6.24999 18.0003ZM14.25 18.0003C14.25 17.5861 14.5858 17.2503 15 17.2503H17C17.4142 17.2503 17.75 17.5861 17.75 18.0003C17.75 18.4145 17.4142 18.7503 17 18.7503H15C14.5858 18.7503 14.25 18.4145 14.25 18.0003Z" fill="#1C274C"/>
</svg>
