<svg width="24" height="24" viewBox="0 0 24 24" fill="none" xmlns="http://www.w3.org/2000/svg">
<path fill-rule="evenodd" clip-rule="evenodd" d="M11.9999 2.75C8.54817 2.75 5.74995 5.54822 5.74995 9C5.74995 12.4518 8.54817 15.25 11.9999 15.25C15.4517 15.25 18.2499 12.4518 18.2499 9C18.2499 5.54822 15.4517 2.75 11.9999 2.75ZM4.24995 9C4.24995 4.71979 7.71974 1.25 11.9999 1.25C16.2802 1.25 19.7499 4.71979 19.7499 9C19.7499 9.94098 19.5822 10.8428 19.2751 11.6772L21.5623 14.0454C21.8197 14.3118 22.034 14.5338 22.1942 14.7187C22.3519 14.9009 22.5136 15.1092 22.6092 15.3513C22.9426 16.1961 22.6743 17.1959 21.8702 17.6883C21.6389 17.8298 21.3755 17.8885 21.1491 17.9264C20.9176 17.9652 20.6234 17.9963 20.2762 18.033L20.2529 18.0355C19.7938 18.084 19.7065 18.0995 19.6473 18.1222C19.4692 18.1905 19.3229 18.3359 19.2504 18.5386C19.2249 18.6099 19.2093 18.7116 19.1628 19.1831L19.1606 19.2053C19.125 19.5664 19.0952 19.869 19.0581 20.1065C19.0219 20.3379 18.9669 20.601 18.835 20.8321C18.3656 21.654 17.3762 21.9623 16.518 21.5992C16.2765 21.497 16.072 21.3259 15.8973 21.1637C15.7186 20.9978 15.5043 20.7758 15.2471 20.5095L15.2274 20.4892L11.9999 17.0893L8.76798 20.4939L8.75284 20.5095C8.49563 20.7758 8.28127 20.9978 8.10256 21.1637C7.92789 21.3259 7.72343 21.497 7.48185 21.5992C6.62365 21.9623 5.63427 21.654 5.16493 20.8321C5.03297 20.601 4.97795 20.3379 4.94182 20.1065C4.90473 19.869 4.87488 19.5664 4.83926 19.2053L4.83707 19.1831C4.79055 18.7116 4.77498 18.6099 4.74948 18.5386C4.67702 18.3359 4.53073 18.1905 4.35262 18.1222C4.29336 18.0995 4.20612 18.084 3.74695 18.0355L3.72368 18.033C3.37653 17.9963 3.08234 17.9652 2.85079 17.9264C2.62437 17.8885 2.36097 17.8298 2.12974 17.6883C1.32555 17.1959 1.05733 16.1961 1.39074 15.3513C1.48627 15.1092 1.64798 14.9009 1.80574 14.7187C1.96589 14.5338 2.18025 14.3118 2.43761 14.0453L4.72479 11.6772C4.41765 10.8428 4.24995 9.94098 4.24995 9ZM5.42753 13.1088L3.53147 15.072C3.25536 15.3578 3.06982 15.5503 2.93964 15.7007C2.81765 15.8415 2.78915 15.896 2.78615 15.9018C2.69587 16.1307 2.78553 16.3246 2.90455 16.4036C2.91347 16.4065 2.96436 16.4246 3.09846 16.447C3.27964 16.4773 3.52798 16.5039 3.90472 16.5438C3.92991 16.5464 3.95491 16.5491 3.97971 16.5517C4.31884 16.5871 4.62124 16.6188 4.88948 16.7216C5.48848 16.9512 5.94669 17.4316 6.16191 18.0336C6.25818 18.3028 6.28785 18.6065 6.32247 18.9608C6.32489 18.9855 6.32733 19.0106 6.32982 19.0358C6.36821 19.4249 6.39413 19.6848 6.42386 19.8751C6.4493 20.038 6.46979 20.0902 6.4705 20.0934C6.55032 20.2277 6.71437 20.2942 6.8954 20.2185C6.8954 20.2185 6.94541 20.1912 7.08198 20.0644C7.22662 19.9301 7.41183 19.7388 7.68675 19.4541L7.68902 19.4518L10.409 16.5865C8.31312 16.1493 6.52799 14.8654 5.42753 13.1088ZM13.5909 16.5865C15.6868 16.1493 17.4719 14.8654 18.5724 13.1088L20.4684 15.072C20.7445 15.3578 20.9301 15.5503 21.0603 15.7007C21.1822 15.8415 21.2107 15.896 21.2137 15.9018C21.304 16.1307 21.2144 16.3246 21.0953 16.4036C21.0864 16.4065 21.0355 16.4246 20.9014 16.447C20.7203 16.4773 20.4719 16.5039 20.0952 16.5438C20.07 16.5464 20.045 16.5491 20.0202 16.5517C19.6811 16.5871 19.3787 16.6188 19.1104 16.7216C18.5114 16.9512 18.0532 17.4316 17.838 18.0336C17.7417 18.3028 17.712 18.6065 17.6774 18.9608C17.675 18.9855 17.6726 19.0106 17.6701 19.0358C17.6317 19.4249 17.6058 19.6848 17.576 19.8751C17.5506 20.038 17.5301 20.0902 17.5294 20.0934C17.4493 20.2282 17.2843 20.2946 17.1025 20.2177L17.1046 20.2186C17.1046 20.2186 17.0545 20.1912 16.9179 20.0644C16.7733 19.9301 16.5881 19.7388 16.3131 19.4541L16.3109 19.4518L13.5909 16.5865ZM11.9999 7.03449C11.9418 7.13513 11.8772 7.25103 11.801 7.38769L11.7027 7.56405C11.6957 7.5765 11.6883 7.59009 11.6803 7.60466C11.6018 7.74827 11.4718 7.9861 11.2549 8.15071C11.0335 8.31877 10.7672 8.37659 10.6115 8.4104C10.5959 8.41379 10.5814 8.41693 10.5682 8.41992L10.3773 8.46312C10.2021 8.50275 10.0595 8.53509 9.93744 8.56575C10.0168 8.66345 10.1199 8.78474 10.254 8.94154L10.3841 9.09372C10.3934 9.10452 10.4034 9.11609 10.4141 9.1284C10.522 9.25273 10.6963 9.45346 10.7769 9.71261C10.8565 9.96869 10.829 10.2324 10.8117 10.3988C10.81 10.4154 10.8084 10.431 10.8069 10.4456L10.7873 10.6487C10.769 10.8369 10.7548 10.9872 10.7454 11.1094C10.8496 11.0635 10.9681 11.0089 11.109 10.9441L11.2877 10.8618C11.3 10.8561 11.3135 10.8498 11.3281 10.8429C11.4716 10.7752 11.7213 10.6575 11.9999 10.6575C12.2786 10.6575 12.5283 10.7752 12.6718 10.8429C12.6864 10.8498 12.6999 10.8561 12.7122 10.8618L12.8909 10.9441C13.0317 11.0089 13.1503 11.0635 13.2545 11.1094C13.2451 10.9872 13.2309 10.8369 13.2126 10.6487L13.1929 10.4456C13.1915 10.431 13.1899 10.4154 13.1882 10.3988C13.1708 10.2324 13.1434 9.96869 13.223 9.71261C13.3036 9.45346 13.4779 9.25273 13.5858 9.12841C13.5965 9.11609 13.6065 9.10452 13.6158 9.09372L13.7459 8.94153C13.88 8.78474 13.9831 8.66345 14.0624 8.56575C13.9404 8.53509 13.7977 8.50275 13.6226 8.46312L13.4317 8.41992C13.4184 8.41693 13.404 8.41379 13.3884 8.4104C13.2326 8.37659 12.9664 8.31877 12.745 8.15071C12.5281 7.9861 12.3981 7.74828 12.3196 7.60466C12.3116 7.5901 12.3042 7.5765 12.2972 7.56405L12.1989 7.38769C12.1227 7.25103 12.0581 7.13513 11.9999 7.03449ZM11.0134 5.79963C11.1856 5.57481 11.4982 5.25 11.9999 5.25C12.5016 5.25 12.8143 5.57481 12.9865 5.79963C13.1508 6.01421 13.3163 6.31124 13.4859 6.61577C13.4936 6.62961 13.5014 6.64347 13.5091 6.65734L13.6074 6.83369C13.6302 6.87459 13.6481 6.90677 13.6638 6.9343C13.6912 6.94071 13.723 6.94792 13.7627 6.95691L13.9536 7.0001C13.9692 7.00364 13.9849 7.00717 14.0005 7.0107C14.3283 7.08478 14.6541 7.15839 14.9042 7.25695C15.1803 7.36577 15.5546 7.5777 15.6989 8.04161C15.8406 8.49734 15.6618 8.88336 15.5056 9.13146C15.361 9.36108 15.1413 9.61786 14.9164 9.88074C14.9063 9.89262 14.8961 9.90452 14.8859 9.91642L14.7558 10.0686C14.7213 10.1089 14.6953 10.1394 14.6734 10.1657C14.6764 10.202 14.6805 10.2443 14.686 10.3009L14.7056 10.504C14.7071 10.5195 14.7086 10.5349 14.7101 10.5504C14.7443 10.9023 14.7773 11.2424 14.7652 11.5145C14.7525 11.7997 14.6841 12.2315 14.2969 12.5254C13.8975 12.8286 13.4564 12.7626 13.1766 12.6824C12.9189 12.6086 12.6144 12.4682 12.3077 12.3269C12.293 12.3201 12.2783 12.3134 12.2636 12.3066L12.0848 12.2243C12.0514 12.2089 12.0239 12.1963 11.9999 12.1854C11.976 12.1963 11.9485 12.2089 11.9151 12.2243L11.7363 12.3066C11.7216 12.3134 11.7069 12.3201 11.6922 12.3269C11.3855 12.4682 11.081 12.6086 10.8232 12.6824C10.5435 12.7626 10.1024 12.8286 9.70301 12.5254C9.31584 12.2315 9.24738 11.7997 9.23467 11.5145C9.22255 11.2424 9.25558 10.9023 9.28976 10.5504C9.29126 10.5349 9.29276 10.5195 9.29426 10.504L9.31394 10.3009C9.31942 10.2443 9.32351 10.202 9.32649 10.1657C9.3046 10.1394 9.27861 10.1089 9.24412 10.0686L9.11398 9.91642C9.1038 9.90452 9.09362 9.89262 9.08345 9.88074C8.85854 9.61786 8.63885 9.36108 8.4943 9.13146C8.33812 8.88336 8.15928 8.49734 8.301 8.04161C8.44526 7.5777 8.81957 7.36577 9.09571 7.25695C9.34579 7.15839 9.67158 7.08478 9.9994 7.0107C10.015 7.00717 10.0307 7.00364 10.0463 7.0001L10.2372 6.95691C10.2769 6.94792 10.3087 6.94071 10.336 6.9343C10.3517 6.90677 10.3697 6.87459 10.3925 6.83369L10.4908 6.65734C10.4985 6.64347 10.5063 6.62961 10.514 6.61576C10.6836 6.31124 10.8491 6.01421 11.0134 5.79963Z" fill="#1C274C"/>
</svg>
