<svg width="24" height="24" viewBox="0 0 24 24" fill="none" xmlns="http://www.w3.org/2000/svg">
<path fill-rule="evenodd" clip-rule="evenodd" d="M8.41804 3.25077C8.69875 2.65912 9.3016 2.25 10 2.25H14C14.6984 2.25 15.3013 2.65912 15.582 3.25077C16.2655 3.25574 16.7982 3.28712 17.2738 3.47298C17.842 3.69505 18.3362 4.07255 18.6999 4.5623C19.0668 5.05639 19.2391 5.68968 19.4762 6.56133C19.4883 6.60604 19.5007 6.65137 19.5132 6.69735L20.104 8.86428C20.4915 9.06271 20.8306 9.32993 21.1134 9.6922C21.7354 10.4888 21.8456 11.4377 21.7349 12.5261C21.6276 13.5822 21.2951 14.9122 20.8788 16.577L20.8525 16.6824C20.5893 17.7352 20.3756 18.59 20.1215 19.2572C19.8565 19.9527 19.5201 20.5227 18.9655 20.9558C18.4108 21.3888 17.7762 21.5769 17.0372 21.6653C16.3284 21.75 15.4473 21.75 14.3622 21.75H9.63785C8.55269 21.75 7.67161 21.75 6.9628 21.6653C6.22379 21.5769 5.58916 21.3888 5.03453 20.9558C4.47991 20.5227 4.14351 19.9527 3.87854 19.2572C3.6244 18.5901 3.41072 17.7353 3.14755 16.6825L3.12114 16.5769C2.70493 14.9121 2.37243 13.5822 2.26506 12.5261C2.15441 11.4377 2.26457 10.4888 2.88656 9.6922C3.16941 9.32993 3.50848 9.06271 3.89596 8.86428L4.48681 6.69735C4.49935 6.65137 4.51168 6.60604 4.52384 6.56134C4.76092 5.68968 4.93316 5.05639 5.30009 4.5623C5.66381 4.07255 6.15802 3.69505 6.72621 3.47298C7.20176 3.28712 7.7345 3.25574 8.41804 3.25077ZM8.41945 4.75219C7.75762 4.75888 7.49204 4.78416 7.27224 4.87007C6.96629 4.98964 6.70018 5.19291 6.50433 5.45662C6.32822 5.69376 6.22488 6.02508 5.93398 7.09195L5.5804 8.38869C6.6182 8.24996 7.958 8.24998 9.62261 8.25H14.3774C16.042 8.24998 17.3818 8.24996 18.4196 8.38869L18.066 7.09194C17.7751 6.02508 17.6718 5.69377 17.4957 5.45663C17.2998 5.19291 17.0337 4.98964 16.7278 4.87007C16.508 4.78416 16.2424 4.75888 15.5806 4.75219C15.2992 5.34225 14.6972 5.75 14 5.75H10C9.30276 5.75 8.70076 5.34225 8.41945 4.75219ZM10 3.75C9.86193 3.75 9.75 3.86193 9.75 4C9.75 4.13807 9.86193 4.25 10 4.25H14C14.1381 4.25 14.25 4.13807 14.25 4C14.25 3.86193 14.1381 3.75 14 3.75H10ZM5.69985 9.88649C4.78868 10.0183 4.3477 10.2582 4.06887 10.6153C3.79003 10.9725 3.66425 11.4584 3.75737 12.3744C3.85248 13.3099 4.1567 14.5345 4.59141 16.2733C4.86867 17.3824 5.06177 18.1496 5.28027 18.7231C5.49158 19.2778 5.69849 19.5711 5.95765 19.7735C6.21681 19.9758 6.55154 20.1054 7.1409 20.1759C7.75029 20.2488 8.54147 20.25 9.68466 20.25H14.3153C15.4585 20.25 16.2497 20.2488 16.8591 20.1759C17.4485 20.1054 17.7832 19.9758 18.0423 19.7735C18.3015 19.5711 18.5084 19.2778 18.7197 18.7231C18.9382 18.1496 19.1313 17.3824 19.4086 16.2733C19.8433 14.5345 20.1475 13.3099 20.2426 12.3744C20.3357 11.4584 20.21 10.9725 19.9311 10.6153C19.6523 10.2582 19.2113 10.0183 18.3002 9.88649C17.3695 9.75187 16.1077 9.75 14.3153 9.75H9.68466C7.89232 9.75 6.63048 9.75187 5.69985 9.88649Z" fill="#1C274C"/>
</svg>
