<svg width="24" height="24" viewBox="0 0 24 24" fill="none" xmlns="http://www.w3.org/2000/svg">
<path d="M8.74999 13C8.74999 12.5858 8.41421 12.25 7.99999 12.25C7.58578 12.25 7.24999 12.5858 7.24999 13V17C7.24999 17.4142 7.58578 17.75 7.99999 17.75C8.41421 17.75 8.74999 17.4142 8.74999 17V13Z" fill="#1C274C"/>
<path d="M16 12.25C16.4142 12.25 16.75 12.5858 16.75 13V17C16.75 17.4142 16.4142 17.75 16 17.75C15.5858 17.75 15.25 17.4142 15.25 17V13C15.25 12.5858 15.5858 12.25 16 12.25Z" fill="#1C274C"/>
<path d="M12.75 13C12.75 12.5858 12.4142 12.25 12 12.25C11.5858 12.25 11.25 12.5858 11.25 13V17C11.25 17.4142 11.5858 17.75 12 17.75C12.4142 17.75 12.75 17.4142 12.75 17V13Z" fill="#1C274C"/>
<path fill-rule="evenodd" clip-rule="evenodd" d="M17.2738 3.47298C16.7982 3.28712 16.2655 3.25574 15.582 3.25077C15.3012 2.65912 14.6984 2.25 14 2.25H9.99999C9.30159 2.25 8.69874 2.65912 8.41804 3.25077C7.7345 3.25574 7.20175 3.28712 6.7262 3.47298C6.15801 3.69505 5.6638 4.07255 5.30008 4.5623C4.93316 5.05639 4.76091 5.68968 4.52383 6.56133L3.89596 8.86426C3.50846 9.06269 3.16938 9.32992 2.88651 9.6922C2.26452 10.4888 2.15436 11.4377 2.26501 12.5261C2.37238 13.5822 2.70488 14.9121 3.1211 16.5769L3.1475 16.6825C3.41067 17.7353 3.62435 18.5901 3.87849 19.2572C4.14346 19.9527 4.47986 20.5227 5.03448 20.9558C5.58911 21.3888 6.22374 21.5769 6.96275 21.6653C7.67157 21.75 8.55266 21.75 9.63783 21.75H14.3621C15.4472 21.75 16.3283 21.75 17.0372 21.6653C17.7762 21.5769 18.4108 21.3888 18.9654 20.9558C19.52 20.5227 19.8564 19.9527 20.1214 19.2572C20.3756 18.5901 20.5892 17.7353 20.8524 16.6825L20.8788 16.577C21.295 14.9122 21.6275 13.5822 21.7349 12.5261C21.8455 11.4377 21.7354 10.4888 21.1134 9.6922C20.8305 9.32995 20.4915 9.06274 20.104 8.86431L19.4762 6.56133C19.2391 5.68968 19.0668 5.05639 18.6999 4.5623C18.3362 4.07255 17.842 3.69505 17.2738 3.47298ZM7.27223 4.87007C7.49203 4.78416 7.75761 4.75888 8.41944 4.75219C8.70076 5.34225 9.30276 5.75 9.99999 5.75H14C14.6972 5.75 15.2992 5.34225 15.5805 4.75219C16.2424 4.75888 16.508 4.78416 16.7278 4.87007C17.0337 4.98964 17.2998 5.19291 17.4957 5.45663C17.6718 5.69377 17.7751 6.02508 18.066 7.09194L18.4196 8.3887C17.3818 8.24996 16.042 8.24998 14.3773 8.25H9.62255C7.95797 8.24998 6.61819 8.24996 5.58039 8.38868L5.93397 7.09195C6.22487 6.02508 6.32821 5.69376 6.50432 5.45662C6.70017 5.19291 6.96628 4.98964 7.27223 4.87007ZM9.99999 3.75C9.86192 3.75 9.74999 3.86193 9.74999 4C9.74999 4.13807 9.86192 4.25 9.99999 4.25H14C14.1381 4.25 14.25 4.13807 14.25 4C14.25 3.86193 14.1381 3.75 14 3.75H9.99999ZM4.06882 10.6153C4.34766 10.2582 4.78863 10.0183 5.6998 9.88649C6.63043 9.75187 7.89227 9.75 9.68461 9.75H14.3153C16.1076 9.75 17.3695 9.75187 18.3001 9.88649C19.2113 10.0183 19.6522 10.2582 19.9311 10.6153C20.2099 10.9725 20.3357 11.4584 20.2426 12.3744C20.1475 13.3099 19.8432 14.5345 19.4085 16.2733C19.1313 17.3824 18.9382 18.1496 18.7197 18.7231C18.5084 19.2778 18.3015 19.5711 18.0423 19.7735C17.7831 19.9758 17.4484 20.1054 16.8591 20.1759C16.2497 20.2488 15.4585 20.25 14.3153 20.25H9.68461C8.54142 20.25 7.75024 20.2488 7.14085 20.1759C6.55149 20.1054 6.21677 19.9758 5.9576 19.7735C5.69844 19.5711 5.49153 19.2778 5.28022 18.7231C5.06172 18.1496 4.86862 17.3824 4.59136 16.2733C4.15665 14.5345 3.85243 13.3099 3.75732 12.3744C3.6642 11.4584 3.78998 10.9725 4.06882 10.6153Z" fill="#1C274C"/>
</svg>
