<svg width="24" height="24" viewBox="0 0 24 24" fill="none" xmlns="http://www.w3.org/2000/svg">
<path d="M9.37473 8.26074C9.78312 8.19156 10.1703 8.46654 10.2395 8.87493L10.7677 11.9928C10.8368 12.4012 10.5619 12.7883 10.1535 12.8575C9.74506 12.9267 9.35791 12.6517 9.28872 12.2433L8.76053 9.12548C8.69135 8.71708 8.96633 8.32993 9.37473 8.26074Z" fill="#1C274C"/>
<path d="M14.7889 8.87493C14.858 8.46654 15.2452 8.19156 15.6536 8.26074C16.062 8.32993 16.337 8.71708 16.2678 9.12548L15.7396 12.2433C15.6704 12.6517 15.2833 12.9267 14.8749 12.8575C14.4665 12.7883 14.1915 12.4012 14.2607 11.9928L14.7889 8.87493Z" fill="#1C274C"/>
<path fill-rule="evenodd" clip-rule="evenodd" d="M2.24876 2.29266C1.85799 2.15527 1.42984 2.36068 1.29245 2.75145C1.15507 3.14221 1.36047 3.57036 1.75124 3.70775L2.01245 3.79958C2.68006 4.0343 3.11881 4.18985 3.44165 4.34826C3.74488 4.49704 3.87855 4.61747 3.96661 4.74634C4.05687 4.87842 4.12657 5.05984 4.1659 5.42319C4.20706 5.8034 4.20808 6.29862 4.20808 7.03856V9.7602C4.20808 11.2127 4.2217 12.2601 4.35876 13.0603C4.50508 13.9146 4.79721 14.5263 5.34345 15.1024C5.93731 15.7288 6.69012 16.0015 7.58636 16.1285C8.44459 16.2502 9.53444 16.2502 10.8801 16.2502L16.2859 16.2502C17.0276 16.2502 17.6516 16.2502 18.1566 16.1884C18.6923 16.1229 19.1809 15.9796 19.6074 15.632C20.0339 15.2844 20.2729 14.8349 20.4453 14.3234C20.6077 13.8413 20.7337 13.2301 20.8834 12.5037L21.3923 10.0344L21.3933 10.0298L21.4037 9.97747C21.5684 9.15259 21.7069 8.4587 21.7414 7.90058C21.7775 7.31438 21.7108 6.73637 21.329 6.23998C21.094 5.93456 20.7636 5.76166 20.4632 5.65607C20.1567 5.54838 19.8101 5.48608 19.4604 5.44698C18.7733 5.37018 17.9387 5.37019 17.12 5.3702L5.66788 5.3702C5.66459 5.33345 5.66104 5.29731 5.65719 5.26177C5.60346 4.76539 5.48704 4.31268 5.20507 3.90003C4.92088 3.48417 4.54304 3.21784 4.1024 3.00163C3.69032 2.79943 3.16668 2.61536 2.55016 2.39862L2.24876 2.29266ZM5.70807 6.8702H17.0888C17.9452 6.8702 18.6989 6.87121 19.2937 6.9377C19.5893 6.97074 19.8105 7.01664 19.9659 7.07125C20.0929 7.11589 20.1359 7.15234 20.1421 7.15762C20.2035 7.23902 20.2702 7.38672 20.2442 7.80818C20.2168 8.25174 20.1003 8.844 19.9227 9.73393L19.9223 9.73615L19.4235 12.1563C19.2621 12.9391 19.1535 13.4595 19.0238 13.8444C18.9007 14.2097 18.785 14.3672 18.6598 14.4692C18.5346 14.5712 18.3571 14.6527 17.9744 14.6996C17.5712 14.7489 17.0397 14.7502 16.2404 14.7502H10.9375C9.52069 14.7502 8.53763 14.7484 7.79696 14.6434C7.08214 14.542 6.70452 14.3578 6.43198 14.0704C6.11181 13.7327 5.93913 13.402 5.83723 12.8071C5.72607 12.1581 5.70808 11.2492 5.70808 9.7602L5.70807 6.8702Z" fill="#1C274C"/>
<path fill-rule="evenodd" clip-rule="evenodd" d="M7.5 21.7502C6.25736 21.7502 5.25 20.7428 5.25 19.5002C5.25 18.2576 6.25736 17.2502 7.5 17.2502C8.74264 17.2502 9.75 18.2576 9.75 19.5002C9.75 20.7428 8.74264 21.7502 7.5 21.7502ZM6.75 19.5002C6.75 19.9144 7.08578 20.2502 7.5 20.2502C7.91421 20.2502 8.25 19.9144 8.25 19.5002C8.25 19.086 7.91421 18.7502 7.5 18.7502C7.08578 18.7502 6.75 19.086 6.75 19.5002Z" fill="#1C274C"/>
<path fill-rule="evenodd" clip-rule="evenodd" d="M16.5 21.7503C15.2574 21.7503 14.25 20.7429 14.25 19.5003C14.25 18.2576 15.2574 17.2503 16.5 17.2503C17.7426 17.2503 18.75 18.2576 18.75 19.5003C18.75 20.7429 17.7426 21.7503 16.5 21.7503ZM15.75 19.5003C15.75 19.9145 16.0858 20.2503 16.5 20.2503C16.9142 20.2503 17.25 19.9145 17.25 19.5003C17.25 19.0861 16.9142 18.7503 16.5 18.7503C16.0858 18.7503 15.75 19.0861 15.75 19.5003Z" fill="#1C274C"/>
</svg>
