<svg width="24" height="24" viewBox="0 0 24 24" fill="none" xmlns="http://www.w3.org/2000/svg">
<path d="M7.25001 12.0002C7.25001 11.586 7.58579 11.2502 8.00001 11.2502H16C16.4142 11.2502 16.75 11.586 16.75 12.0002C16.75 12.4144 16.4142 12.7502 16 12.7502H8.00001C7.58579 12.7502 7.25001 12.4144 7.25001 12.0002Z" fill="#1C274C"/>
<path d="M10 14.2502C9.58579 14.2502 9.25001 14.586 9.25001 15.0002C9.25001 15.4144 9.58579 15.7502 10 15.7502H14C14.4142 15.7502 14.75 15.4144 14.75 15.0002C14.75 14.586 14.4142 14.2502 14 14.2502H10Z" fill="#1C274C"/>
<path fill-rule="evenodd" clip-rule="evenodd" d="M14.6646 2.32934C15.0351 2.1441 15.4856 2.29427 15.6708 2.66475L17.4841 6.29135C17.9117 6.31309 18.3015 6.3463 18.6548 6.39702C19.7106 6.54861 20.5843 6.87448 21.2053 7.64262C21.8263 8.41077 21.9619 9.33344 21.8889 10.3975C21.8181 11.4287 21.5395 12.729 21.1911 14.3547L20.7397 16.4614C20.5047 17.5578 20.3142 18.4472 20.0743 19.142C19.8244 19.8661 19.495 20.4616 18.9323 20.9164C18.3697 21.3713 17.7184 21.5686 16.9581 21.6613C16.2284 21.7502 15.3188 21.7502 14.1975 21.7502H9.80258C8.68126 21.7502 7.77165 21.7502 7.04202 21.6613C6.28165 21.5686 5.63039 21.3713 5.06775 20.9164C4.50511 20.4616 4.17567 19.8661 3.92575 19.142C3.68593 18.4472 3.49535 17.5578 3.26042 16.4614L2.80899 14.3547C2.46061 12.7291 2.18194 11.4287 2.11121 10.3975C2.03822 9.33344 2.17377 8.41077 2.79476 7.64262C3.41574 6.87448 4.28953 6.54861 5.34525 6.39702C5.69853 6.3463 6.08838 6.31309 6.51589 6.29135L8.32919 2.66475C8.51443 2.29427 8.96493 2.1441 9.33542 2.32934C9.7059 2.51459 9.85607 2.96509 9.67083 3.33557L8.2125 6.25223C8.57606 6.25015 8.95871 6.25016 9.36082 6.25016H14.6393C15.0413 6.25016 15.424 6.25015 15.7875 6.25223L14.3292 3.33557C14.1439 2.96509 14.2941 2.51459 14.6646 2.32934ZM5.73213 7.85888L5.32919 8.66475C5.14395 9.03524 5.29411 9.48574 5.6646 9.67099C6.03508 9.85623 6.48559 9.70606 6.67083 9.33558L7.45808 7.76107C8.02848 7.7505 8.67792 7.75016 9.42197 7.75016H14.5781C15.3221 7.75016 15.9716 7.7505 16.5419 7.76107L17.3292 9.33558C17.5144 9.70606 17.9649 9.85623 18.3354 9.67099C18.7059 9.48574 18.8561 9.03524 18.6708 8.66475L18.2679 7.85887C18.3271 7.86603 18.385 7.87366 18.4417 7.8818C19.3255 8.00871 19.7593 8.23982 20.0388 8.58564C20.3184 8.93146 20.4535 9.40398 20.3924 10.2948C20.3299 11.206 20.0757 12.401 19.7116 14.1002L19.283 16.1002C19.0356 17.2547 18.863 18.0543 18.6564 18.6526C18.4566 19.2316 18.2518 19.5378 17.9893 19.7499C17.7269 19.9621 17.3846 20.0982 16.7766 20.1723C16.1483 20.2489 15.3303 20.2502 14.1495 20.2502H9.85054C8.66978 20.2502 7.85181 20.2489 7.22347 20.1723C6.61551 20.0982 6.2732 19.9621 6.01077 19.7499C5.74834 19.5378 5.54349 19.2316 5.34366 18.6526C5.13714 18.0543 4.96448 17.2547 4.71708 16.1002L4.28851 14.1002C3.92438 12.401 3.67019 11.206 3.60769 10.2948C3.54658 9.40398 3.68169 8.93146 3.96126 8.58564C4.24082 8.23982 4.67455 8.00871 5.55843 7.8818C5.61507 7.87367 5.67295 7.86604 5.73213 7.85888Z" fill="#1C274C"/>
</svg>
