<svg width="24" height="24" viewBox="0 0 24 24" fill="none" xmlns="http://www.w3.org/2000/svg">
<path d="M7.25002 9.0002C7.25002 8.58599 7.58581 8.2502 8.00002 8.2502H11C11.4142 8.2502 11.75 8.58599 11.75 9.0002C11.75 9.41442 11.4142 9.7502 11 9.7502H8.00002C7.58581 9.7502 7.25002 9.41442 7.25002 9.0002Z" fill="#1C274C"/>
<path fill-rule="evenodd" clip-rule="evenodd" d="M1.28851 2.76303C1.41949 2.37008 1.84423 2.15771 2.23719 2.28869L2.54157 2.39015C3.16795 2.59892 3.69728 2.77534 4.11351 2.96898C4.55595 3.1748 4.93984 3.42989 5.23094 3.83377C5.52203 4.23764 5.64264 4.6825 5.69799 5.16732C5.7011 5.19459 5.70403 5.22221 5.70678 5.2502L16.5108 5.2502C17.4868 5.25016 18.3032 5.25013 18.9277 5.34257C19.5791 5.43901 20.2074 5.66069 20.6036 6.2616C20.9998 6.8625 20.9561 7.52731 20.7881 8.16406C20.6271 8.77441 20.3055 9.52483 19.921 10.4218L19.4542 11.5111C19.2776 11.9232 19.1223 12.2857 18.9608 12.5727C18.786 12.8834 18.5726 13.1656 18.2495 13.3786C17.9265 13.5916 17.5831 13.6766 17.2286 13.7149C16.9012 13.7503 16.5068 13.7502 16.0585 13.7502H6.15359C6.22739 13.8842 6.31233 13.9945 6.40903 14.0912C6.68579 14.368 7.07437 14.5484 7.80814 14.6471C8.56349 14.7486 9.5646 14.7502 11 14.7502H19C19.4142 14.7502 19.75 15.086 19.75 15.5002C19.75 15.9144 19.4142 16.2502 19 16.2502H10.9452C9.57757 16.2502 8.47523 16.2502 7.60827 16.1337C6.70816 16.0127 5.95029 15.7538 5.34837 15.1519C4.74645 14.5499 4.48756 13.7921 4.36654 12.892C4.24998 12.025 4.25 10.9227 4.25002 9.55508L4.25002 6.88324C4.25002 6.17024 4.24889 5.69848 4.20767 5.33747C4.16864 4.99562 4.10049 4.83074 4.01407 4.71083C3.92765 4.59093 3.79278 4.47414 3.48082 4.32901C3.15137 4.17575 2.70417 4.02549 2.02776 3.80002L1.76285 3.71172C1.36989 3.58073 1.15752 3.15599 1.28851 2.76303ZM5.80675 12.2502H16.0218C16.5177 12.2502 16.8303 12.2492 17.0676 12.2236C17.2869 12.1999 17.3712 12.161 17.4238 12.1263C17.4764 12.0916 17.5454 12.0294 17.6535 11.8373C17.7705 11.6292 17.8946 11.3423 18.0899 10.8865L18.5185 9.88652C18.933 8.91932 19.2085 8.27152 19.3378 7.78145C19.4634 7.30522 19.3997 7.16069 19.3513 7.08734C19.303 7.01398 19.1952 6.89853 18.708 6.8264C18.2066 6.75218 17.5027 6.7502 16.4504 6.7502H5.75002C5.75002 6.78044 5.75002 6.81091 5.75002 6.84159L5.75002 9.5002C5.75002 10.6722 5.75108 11.5546 5.80675 12.2502Z" fill="#1C274C"/>
<path fill-rule="evenodd" clip-rule="evenodd" d="M7.50002 21.7502C6.25738 21.7502 5.25002 20.7428 5.25002 19.5002C5.25002 18.2576 6.25738 17.2502 7.50002 17.2502C8.74266 17.2502 9.75002 18.2576 9.75002 19.5002C9.75002 20.7428 8.74266 21.7502 7.50002 21.7502ZM6.75002 19.5002C6.75002 19.9144 7.08581 20.2502 7.50002 20.2502C7.91423 20.2502 8.25002 19.9144 8.25002 19.5002C8.25002 19.086 7.91423 18.7502 7.50002 18.7502C7.08581 18.7502 6.75002 19.086 6.75002 19.5002Z" fill="#1C274C"/>
<path fill-rule="evenodd" clip-rule="evenodd" d="M14.25 19.5003C14.25 20.7429 15.2574 21.7503 16.5 21.7503C17.7427 21.7503 18.75 20.7429 18.75 19.5003C18.75 18.2576 17.7427 17.2503 16.5 17.2503C15.2574 17.2503 14.25 18.2576 14.25 19.5003ZM16.5 20.2503C16.0858 20.2503 15.75 19.9145 15.75 19.5003C15.75 19.0861 16.0858 18.7503 16.5 18.7503C16.9142 18.7503 17.25 19.0861 17.25 19.5003C17.25 19.9145 16.9142 20.2503 16.5 20.2503Z" fill="#1C274C"/>
</svg>
