<svg width="24" height="24" viewBox="0 0 24 24" fill="none" xmlns="http://www.w3.org/2000/svg">
<path fill-rule="evenodd" clip-rule="evenodd" d="M9.63784 21.75C8.55266 21.75 7.67158 21.75 6.96276 21.6653C6.22375 21.5769 5.58911 21.3888 5.03449 20.9558C4.47987 20.5227 4.14347 19.9527 3.8785 19.2572C3.62436 18.5901 3.41068 17.7353 3.1475 16.6825L3.1211 16.5769C2.70489 14.9121 2.37239 13.5822 2.26502 12.5261C2.15437 11.4377 2.26452 10.4888 2.88652 9.6922C3.16938 9.32992 3.50847 9.06269 3.89597 8.86426L4.52384 6.56133C4.76092 5.68968 4.93316 5.05639 5.30009 4.5623C5.66381 4.07255 6.15802 3.69505 6.72621 3.47298C7.20176 3.28712 7.7345 3.25574 8.41804 3.25077C8.69875 2.65912 9.3016 2.25 10 2.25H14C14.6984 2.25 15.3013 2.65912 15.582 3.25077C16.2655 3.25574 16.7982 3.28712 17.2738 3.47298C17.842 3.69505 18.3362 4.07255 18.6999 4.5623C19.0668 5.05639 19.2391 5.68968 19.4762 6.56133L20.104 8.86431C20.4915 9.06274 20.8306 9.32995 21.1134 9.6922C21.7354 10.4888 21.8455 11.4377 21.7349 12.5261C21.6275 13.5822 21.295 14.9121 20.8788 16.5769L20.8524 16.6824C20.5893 17.7352 20.3756 18.5901 20.1214 19.2572C19.8564 19.9527 19.52 20.5227 18.9654 20.9558C18.4108 21.3888 17.7762 21.5769 17.0372 21.6653C16.3283 21.75 15.4473 21.75 14.3621 21.75H9.63784ZM7.27224 4.87007C7.49204 4.78416 7.75762 4.75888 8.41945 4.75219C8.70077 5.34225 9.30277 5.75 10 5.75H14C14.6972 5.75 15.2992 5.34225 15.5806 4.75219C16.2424 4.75888 16.508 4.78416 16.7278 4.87007C17.0337 4.98964 17.2998 5.19291 17.4957 5.45663C17.6718 5.69377 17.7751 6.02508 18.066 7.09194L18.4196 8.3887C17.3818 8.24996 16.042 8.24998 14.3774 8.25L12.0057 8.25C12.0022 8.24997 11.9986 8.24997 11.9951 8.25L9.62256 8.25C7.95798 8.24998 6.61819 8.24996 5.5804 8.38868L5.93398 7.09195C6.22488 6.02508 6.32822 5.69376 6.50433 5.45662C6.70018 5.19291 6.96629 4.98964 7.27224 4.87007ZM10.3987 9.75H9.68462C7.89227 9.75 6.63044 9.75187 5.6998 9.88649C5.58187 9.90355 5.47181 9.92243 5.36896 9.94313L7.55993 13.1565L10.3987 9.75ZM4.03886 10.655C3.78108 11.0086 3.66762 11.4919 3.75733 12.3744C3.85243 13.3099 4.15666 14.5345 4.59137 16.2733C4.62087 16.3913 4.64942 16.5054 4.67714 16.6159L6.56142 14.3548L4.03886 10.655ZM5.15958 18.38C5.19938 18.5018 5.23936 18.6159 5.28023 18.7231C5.49154 19.2778 5.69845 19.5711 5.95761 19.7735C6.21677 19.9758 6.5515 20.1054 7.14086 20.1759C7.75025 20.2488 8.54143 20.25 9.68462 20.25H10.5809L7.44007 15.6435L5.15958 18.38ZM13.4191 20.25L16.5725 15.625L18.8406 18.3791C18.8007 18.5013 18.7607 18.6156 18.7197 18.7231C18.5084 19.2778 18.3015 19.5711 18.0423 19.7735C17.7831 19.9758 17.4484 20.1054 16.8591 20.1759C16.2497 20.2488 15.4585 20.25 14.3153 20.25H13.4191ZM19.3249 16.6075C19.3519 16.4997 19.3798 16.3883 19.4085 16.2733C19.8433 14.5345 20.1475 13.3099 20.2426 12.3744C20.3323 11.492 20.2188 11.0086 19.9611 10.6551L17.4526 14.3341L19.3249 16.6075ZM18.631 9.94314C18.5282 9.92243 18.4181 9.90356 18.3001 9.88649C17.3695 9.75187 16.1076 9.75 14.3153 9.75H13.6775L16.4595 13.1281L18.631 9.94314ZM10 3.75C9.86193 3.75 9.75 3.86193 9.75 4C9.75 4.13807 9.86193 4.25 10 4.25H14C14.1381 4.25 14.25 4.13807 14.25 4C14.25 3.86193 14.1381 3.75 14 3.75H10ZM12.041 10.1224L15.5793 14.419L12 19.6686L8.43859 14.4452L12.041 10.1224Z" fill="#1C274C"/>
</svg>
