<svg width="24" height="24" viewBox="0 0 24 24" fill="none" xmlns="http://www.w3.org/2000/svg">
<path fill-rule="evenodd" clip-rule="evenodd" d="M10.6925 4.95112C9.52266 2.855 6.68752 2.72728 5.00745 4.40735C4.10879 5.30601 3.3103 6.50092 3.25706 7.90512C3.17818 9.98605 3.71556 13.4413 7.13735 16.8631C10.5591 20.2849 14.0144 20.8222 16.0953 20.7434C17.4995 20.6901 18.6944 19.8916 19.5931 18.993C21.2731 17.3129 21.1454 14.4778 19.0493 13.3079L17.8864 12.6589C16.5176 11.895 14.7905 12.2205 13.6585 13.3388C13.6381 13.3538 13.5231 13.4327 13.3221 13.4425C13.0656 13.455 12.4729 13.3637 11.5548 12.4456C10.6364 11.5272 10.5454 10.9344 10.5579 10.6781C10.5677 10.4773 10.6467 10.3623 10.6616 10.3419C11.7799 9.20995 12.1054 7.48287 11.3415 6.11405L10.6925 4.95112ZM6.06811 5.46801C7.17394 4.36218 8.78363 4.60877 9.38265 5.68211L10.0317 6.84504C10.4354 7.56846 10.2977 8.5846 9.58435 9.29792C9.51471 9.36757 9.09846 9.8132 9.0597 10.6047C9.02003 11.415 9.38395 12.3961 10.4942 13.5063C11.604 14.6161 12.5847 14.9802 13.395 14.9407C14.1864 14.9022 14.6322 14.4863 14.7023 14.4163C15.4156 13.703 16.432 13.565 17.1554 13.9688L18.3183 14.6178C19.3916 15.2168 19.6382 16.8265 18.5324 17.9323C17.7571 18.7077 16.9013 19.2117 16.0385 19.2444C14.3031 19.3102 11.2774 18.8818 8.19801 15.8024C5.11864 12.723 4.6902 9.69729 4.75599 7.96195C4.7887 7.09917 5.29276 6.24335 6.06811 5.46801Z" fill="#1C274C"/>
<path d="M18 9.75045C18.4142 9.75045 18.75 9.41466 18.75 9.00045C18.75 8.58623 18.4142 8.25045 18 8.25045H16.8106L19.5303 5.53078C19.8232 5.23788 19.8232 4.76301 19.5303 4.47012C19.2374 4.17722 18.7625 4.17722 18.4696 4.47012L15.75 7.18979V6.00045C15.75 5.58623 15.4142 5.25045 15 5.25045C14.5858 5.25045 14.25 5.58623 14.25 6.00045V9.00045C14.25 9.41466 14.5858 9.75045 15 9.75045H18Z" fill="#1C274C"/>
</svg>
