<svg width="24" height="24" viewBox="0 0 24 24" fill="none" xmlns="http://www.w3.org/2000/svg">
<path fill-rule="evenodd" clip-rule="evenodd" d="M6.00745 3.40735C7.68752 1.72728 10.5227 1.855 11.6925 3.95112L12.3415 5.11405C13.1054 6.48287 12.7799 8.20995 11.6616 9.34192C11.6467 9.36232 11.5677 9.47726 11.5579 9.67807C11.5454 9.93439 11.6364 10.5272 12.5548 11.4456C13.4729 12.3637 14.0656 12.455 14.3221 12.4425C14.5231 12.4327 14.6381 12.3538 14.6585 12.3388C15.7905 11.2205 17.5176 10.895 18.8864 11.6589L20.0493 12.3079C22.1454 13.4778 22.2731 16.3129 20.5931 17.993C19.6944 18.8916 18.4995 19.6901 17.0953 19.7434C15.0144 19.8222 11.5591 19.2849 8.13735 15.8631C4.71556 12.4413 4.17818 8.98605 4.25706 6.90512C4.3103 5.50092 5.10879 4.30601 6.00745 3.40735ZM10.3827 4.68211C9.78363 3.60877 8.17394 3.36218 7.06811 4.46801C6.29276 5.24335 5.7887 6.09917 5.75599 6.96195C5.6902 8.69729 6.11864 11.723 9.19801 14.8024C12.2774 17.8818 15.3031 18.3102 17.0385 18.2444C17.9013 18.2117 18.7571 17.7077 19.5324 16.9323C20.6382 15.8265 20.3916 14.2168 19.3183 13.6178L18.1554 12.9688C17.432 12.565 16.4158 12.7027 15.7025 13.416L15.7023 13.4163C15.6322 13.4863 15.1864 13.9022 14.395 13.9407C13.5847 13.9802 12.604 13.6161 11.4942 12.5063C10.384 11.3961 10.02 10.415 10.0597 9.60472C10.0985 8.8132 10.5147 8.3676 10.5843 8.29795L10.5844 8.29792C11.2977 7.5846 11.4354 6.56846 11.0317 5.84504L10.3827 4.68211Z" fill="#1C274C"/>
</svg>
