<svg width="24" height="24" viewBox="0 0 24 24" fill="none" xmlns="http://www.w3.org/2000/svg">
<path fill-rule="evenodd" clip-rule="evenodd" d="M5.73268 2.04252C6.95002 0.832095 8.95439 1.04755 9.9737 2.40913L11.2347 4.09354C12.0641 5.20142 11.9909 6.74983 11.0064 7.72875L10.7676 7.96616C10.7572 7.99645 10.7319 8.09166 10.76 8.27262C10.8232 8.68011 11.1635 9.54452 12.592 10.9649C14.02 12.3848 14.8905 12.7248 15.3038 12.7882C15.4911 12.8169 15.5891 12.7901 15.6194 12.7795L16.0274 12.3739C16.9026 11.5036 18.2475 11.3409 19.3311 11.93L21.2416 12.9686C22.8775 13.8579 23.2909 16.0816 21.9505 17.4143L20.53 18.8268C20.0824 19.2718 19.4805 19.643 18.7459 19.7114C16.9369 19.8801 12.7187 19.6649 8.28659 15.2579C4.14868 11.1435 3.35462 7.55551 3.25415 5.78769L4.00294 5.74513L3.25415 5.78769C3.20335 4.89377 3.62576 4.13747 4.16308 3.6032L5.73268 2.04252ZM8.77291 3.30808C8.26628 2.63133 7.322 2.57752 6.79032 3.10619L5.22072 4.66688C4.8908 4.99493 4.73206 5.35646 4.75173 5.70258C4.83156 7.10717 5.47286 10.3449 9.34423 14.1943C13.4057 18.2326 17.1569 18.3531 18.6067 18.2179C18.9029 18.1903 19.1975 18.0364 19.4724 17.7631L20.8929 16.3507C21.4704 15.7765 21.343 14.731 20.5252 14.2864L18.6147 13.2479C18.0871 12.9611 17.469 13.0557 17.085 13.4375L16.6296 13.8904L16.1008 13.3586C16.6296 13.8904 16.6289 13.8911 16.6282 13.8918L16.6267 13.8933L16.6236 13.8962L16.6171 13.9025L16.6025 13.9161C16.592 13.9257 16.5799 13.9362 16.5664 13.9475C16.5392 13.97 16.5058 13.9954 16.4659 14.0222C16.3858 14.0758 16.2801 14.1342 16.1472 14.1837C15.8764 14.2846 15.5192 14.3387 15.0764 14.2708C14.2096 14.1379 13.0614 13.5469 11.5344 12.0286C10.0079 10.5108 9.41194 9.36785 9.2777 8.50257C9.20906 8.06012 9.26381 7.70282 9.36594 7.43176C9.41599 7.29892 9.47497 7.1933 9.5291 7.1134C9.5561 7.07356 9.58179 7.04025 9.60446 7.01319C9.6158 6.99966 9.6264 6.98768 9.63604 6.97721L9.64977 6.96263L9.65606 6.95617L9.65905 6.95314L9.66051 6.95168C9.66122 6.95097 9.66194 6.95026 10.1908 7.4821L9.66194 6.95026L9.94875 6.66507C10.3774 6.2389 10.4374 5.53145 10.0339 4.99248L8.77291 3.30808Z" fill="#1C274C"/>
</svg>
