<svg width="24" height="24" viewBox="0 0 24 24" fill="none" xmlns="http://www.w3.org/2000/svg">
<path d="M16.384 15.1442C16.7398 14.9322 16.8563 14.4718 16.6443 14.116C16.4322 13.7602 15.9718 13.6437 15.616 13.8558L11.616 16.2398C11.2602 16.4519 11.1437 16.9122 11.3558 17.268C11.5678 17.6239 12.0282 17.7404 12.384 17.5283L16.384 15.1442Z" fill="#1C274C"/>
<path fill-rule="evenodd" clip-rule="evenodd" d="M10.8394 3.54012C11.2106 3.36702 11.5811 3.25 12 3.25C12.419 3.25 12.7895 3.36702 13.1606 3.54012C13.5091 3.70266 13.9064 3.9388 14.3734 4.21642L17.3928 6.0112C17.8601 6.28896 18.2572 6.52502 18.5679 6.75426C18.7182 6.86518 18.8578 6.98113 18.9847 7.10886L21.584 5.37596C21.9286 5.1462 22.3943 5.23933 22.6241 5.58397C22.8538 5.92862 22.7607 6.39427 22.416 6.62404L19.668 8.45604C19.6875 8.5653 19.7019 8.6767 19.7128 8.7906C19.75 9.18002 19.75 9.6501 19.75 10.2071V13.7929C19.75 14.3499 19.75 14.82 19.7128 15.2094C19.6732 15.6223 19.5879 16.0023 19.3835 16.3668C19.1784 16.7325 18.8992 17.0013 18.5679 17.2457C18.2572 17.475 17.8601 17.711 17.3928 17.9888L14.3734 19.7836C13.9065 20.0611 13.5091 20.2974 13.1606 20.4599C12.7895 20.633 12.419 20.75 12 20.75C11.5811 20.75 11.2106 20.633 10.8394 20.4599C10.4909 20.2974 10.0938 20.0613 9.62684 19.7837L6.60727 17.9888C6.13994 17.711 5.74281 17.475 5.43213 17.2457C5.28181 17.1348 5.1422 17.0189 5.01538 16.8911L2.41604 18.624C2.0714 18.8538 1.60575 18.7607 1.37598 18.416C1.14622 18.0714 1.23935 17.6057 1.58399 17.376L4.33199 15.544C4.31257 15.4347 4.29818 15.3233 4.28727 15.2094C4.24999 14.82 4.25 14.3499 4.25002 13.7929V10.2071C4.25 9.6501 4.24999 9.18001 4.28727 8.7906C4.29818 8.6767 4.31257 8.5653 4.33199 8.45604L1.58399 6.62404C1.23935 6.39427 1.14622 5.92862 1.37598 5.58397C1.60575 5.23933 2.0714 5.1462 2.41604 5.37596L5.01538 7.10885C5.14221 6.98113 5.28181 6.86518 5.43213 6.75426C5.74281 6.52501 6.13994 6.28897 6.60728 6.01119L9.62666 4.21642C10.0937 3.9388 10.4909 3.70266 10.8394 3.54012ZM11.4734 4.89954C11.2011 5.02656 10.8684 5.2233 10.3625 5.52401L7.40397 7.28262C6.89824 7.58323 6.56618 7.78162 6.32276 7.96123C6.09326 8.13058 5.9906 8.24969 5.92491 8.36684C5.85858 8.48512 5.80859 8.63957 5.78045 8.93356C5.75081 9.24308 5.75002 9.64101 5.75002 10.2414V13.7586C5.75002 14.359 5.75081 14.7569 5.78045 15.0664C5.80859 15.3604 5.85858 15.5149 5.92491 15.6332C5.9906 15.7503 6.09326 15.8694 6.32276 16.0388C6.56618 16.2184 6.89825 16.4168 7.40397 16.7174L10.3625 18.476C10.8684 18.7767 11.2011 18.9734 11.4734 19.1005C11.7307 19.2205 11.8775 19.25 12 19.25C12.1225 19.25 12.2693 19.2205 12.5266 19.1005C12.7989 18.9734 13.1316 18.7767 13.6375 18.476L16.5961 16.7174C17.1018 16.4168 17.4339 16.2184 17.6773 16.0388C17.9068 15.8694 18.0094 15.7503 18.0751 15.6332C18.1415 15.5149 18.1914 15.3604 18.2196 15.0664C18.2492 14.7569 18.25 14.359 18.25 13.7586V10.2414C18.25 9.64101 18.2492 9.24308 18.2196 8.93356C18.1914 8.63957 18.1415 8.48512 18.0751 8.36684C18.0094 8.24969 17.9068 8.13058 17.6773 7.96123C17.4339 7.78162 17.1018 7.58323 16.5961 7.28262L13.6375 5.52401C13.1316 5.2233 12.7989 5.02656 12.5266 4.89954C12.2693 4.77953 12.1225 4.75 12 4.75C11.8775 4.75 11.7307 4.77953 11.4734 4.89954Z" fill="#1C274C"/>
</svg>
