<svg width="24" height="24" viewBox="0 0 24 24" fill="none" xmlns="http://www.w3.org/2000/svg">
<path fill-rule="evenodd" clip-rule="evenodd" d="M10.5305 1.46967C10.8234 1.76256 10.8234 2.23744 10.5305 2.53033C10.2711 2.78972 10.2711 3.21028 10.5305 3.46967C11.3757 4.31485 11.3757 5.68515 10.5305 6.53033C10.2376 6.82322 9.76276 6.82322 9.46987 6.53033C9.17698 6.23744 9.17698 5.76256 9.46987 5.46967C9.72926 5.21028 9.72926 4.78972 9.46987 4.53033C8.62469 3.68515 8.62469 2.31485 9.46987 1.46967C9.76276 1.17678 10.2376 1.17678 10.5305 1.46967ZM6.03038 2.96967C6.32327 3.26256 6.32327 3.73744 6.03038 4.03033L5.91426 4.14645C5.67101 4.3897 5.64364 4.77479 5.85005 5.05C6.50434 5.92239 6.41758 7.14313 5.6465 7.91421L5.53038 8.03033C5.23749 8.32322 4.76261 8.32322 4.46972 8.03033C4.17683 7.73744 4.17683 7.26256 4.46972 6.96967L4.58584 6.85355C4.82908 6.6103 4.85645 6.22521 4.65005 5.95C3.99576 5.07761 4.08251 3.85687 4.8536 3.08579L4.96972 2.96967C5.26261 2.67678 5.73749 2.67678 6.03038 2.96967ZM15.5304 2.96967C15.8233 3.26256 15.8233 3.73744 15.5304 4.03033L15.4143 4.14645C15.171 4.3897 15.1436 4.77479 15.35 5.05C16.0043 5.92239 15.9176 7.14313 15.1465 7.91421L15.0304 8.03033C14.7375 8.32322 14.2626 8.32322 13.9697 8.03033C13.6768 7.73744 13.6768 7.26256 13.9697 6.96967L14.0858 6.85355C14.3291 6.6103 14.3565 6.22521 14.15 5.95C13.4958 5.07761 13.5825 3.85687 14.3536 3.08579L14.4697 2.96967C14.7626 2.67678 15.2375 2.67678 15.5304 2.96967ZM4.64746 9.24998C4.67004 9.24999 4.69295 9.25 4.7162 9.25H15.2839C15.3071 9.25 15.3301 9.24999 15.3526 9.24998C15.7153 9.24982 15.9935 9.24969 16.2341 9.29246C16.8957 9.4101 17.4692 9.75939 17.874 10.25H19C21.0711 10.25 22.75 11.9289 22.75 14C22.75 16.0711 21.0711 17.75 19 17.75H17.6478C17.2097 18.8798 16.4487 19.8697 15.4436 20.5864C14.382 21.3432 13.1107 21.75 11.807 21.75H8.19311C6.88935 21.75 5.61808 21.3432 4.5565 20.5864C3.1157 19.5591 2.17655 17.9704 1.97113 16.2129L1.57045 12.7849C1.56775 12.7618 1.56508 12.739 1.56244 12.7166C1.52018 12.3564 1.48776 12.0801 1.50231 11.8362C1.57805 10.5669 2.51412 9.51505 3.76604 9.29246C4.00658 9.24969 4.28479 9.24982 4.64746 9.24998ZM16.4683 16.4711C16.3334 16.6067 16.25 16.7936 16.25 17C16.25 17.0551 16.256 17.1088 16.2673 17.1605C15.9372 18.0395 15.3513 18.81 14.5728 19.365C13.7654 19.9406 12.7986 20.25 11.807 20.25H8.19311C7.20154 20.25 6.23467 19.9406 5.42729 19.365C4.33149 18.5837 3.61722 17.3755 3.46098 16.0388L3.0603 12.6107C3.00648 12.1502 2.99409 12.0187 2.99965 11.9255C3.03408 11.3486 3.45956 10.8705 4.02862 10.7693C4.12048 10.753 4.25257 10.75 4.7162 10.75H15.2839C15.7475 10.75 15.8796 10.753 15.9715 10.7693C16.5405 10.8705 16.966 11.3486 17.0004 11.9255C17.006 12.0187 16.9936 12.1502 16.9398 12.6107L16.5391 16.0388C16.5221 16.1845 16.4984 16.3288 16.4683 16.4711ZM18.0245 16.25H19C20.2427 16.25 21.25 15.2426 21.25 14C21.25 12.7574 20.2427 11.75 19 11.75H18.4913C18.4939 11.7786 18.4961 11.8073 18.4978 11.8362C18.5123 12.0801 18.4799 12.3564 18.4377 12.7166C18.435 12.739 18.4324 12.7618 18.4297 12.7849L18.029 16.2129C18.0275 16.2253 18.026 16.2376 18.0245 16.25Z" fill="#1C274C"/>
</svg>
