<svg width="24" height="24" viewBox="0 0 24 24" fill="none" xmlns="http://www.w3.org/2000/svg">
<path fill-rule="evenodd" clip-rule="evenodd" d="M8.55746 4.32738C8.83456 4.63527 8.8096 5.10948 8.50171 5.38658L6.80525 6.9134C6.01737 7.62249 5.48617 8.10289 5.14207 8.51192C4.81182 8.9045 4.73969 9.13368 4.73969 9.32911C4.73969 9.52453 4.81182 9.75372 5.14207 10.1463C5.48617 10.5553 6.01737 11.0357 6.80524 11.7448L8.50171 13.2716C8.8096 13.5487 8.83456 14.0229 8.55746 14.3308C8.28037 14.6387 7.80615 14.6637 7.49827 14.3866L5.76077 12.8228C5.02443 12.1602 4.41363 11.6105 3.99422 11.1119C3.55319 10.5877 3.23969 10.0244 3.23969 9.32911C3.23969 8.63381 3.55319 8.07055 3.99422 7.5463C4.41363 7.04773 5.02444 6.49804 5.76078 5.83538C5.77441 5.82311 5.78808 5.8108 5.8018 5.79846L7.49827 4.27164C7.80615 3.99454 8.28037 4.0195 8.55746 4.32738ZM14.1795 4.27468C14.5798 4.38108 14.818 4.79186 14.7116 5.19217L10.7248 20.1922C10.6184 20.5925 10.2077 20.8308 9.80734 20.7244C9.40702 20.618 9.16876 20.2072 9.27516 19.8069L13.262 4.80687C13.3684 4.40655 13.7791 4.16828 14.1795 4.27468ZM15.4425 10.4978C15.7196 10.1899 16.1938 10.165 16.5017 10.442L18.2392 12.0058C18.9755 12.6684 19.5863 13.2181 20.0058 13.7167C20.4468 14.241 20.7603 14.8042 20.7603 15.4995C20.7603 16.1948 20.4468 16.7581 20.0058 17.2823C19.5864 17.7809 18.9756 18.3306 18.2392 18.9932L16.5017 20.557C16.1938 20.8341 15.7196 20.8091 15.4425 20.5012C15.1654 20.1934 15.1904 19.7191 15.4983 19.442L17.1947 17.9152C17.9826 17.2061 18.5138 16.7257 18.8579 16.3167C19.1882 15.9241 19.2603 15.6949 19.2603 15.4995C19.2603 15.3041 19.1882 15.0749 18.8579 14.6823C18.5138 14.2733 17.9826 13.7929 17.1947 13.0838L15.4983 11.557C15.1904 11.2799 15.1654 10.8057 15.4425 10.4978Z" fill="#1C274C"/>
</svg>
