<svg width="24" height="24" viewBox="0 0 24 24" fill="none" xmlns="http://www.w3.org/2000/svg">
<path d="M19.7225 3.20092C19.8334 2.80182 19.5997 2.38841 19.2006 2.27755C18.8015 2.16669 18.3881 2.40036 18.2773 2.79946L16.7632 8.25019H9.32006L10.7226 3.20092C10.8335 2.80182 10.5998 2.38841 10.2007 2.27755C9.80163 2.16669 9.38822 2.40036 9.27736 2.79946L7.76327 8.25019H4C3.58579 8.25019 3.25 8.58598 3.25 9.00019C3.25 9.4144 3.58579 9.75019 4 9.75019H7.3466L5.81882 15.2502H2C1.58579 15.2502 1.25 15.586 1.25 16.0002C1.25 16.4144 1.58579 16.7502 2 16.7502H5.40216L4.27736 20.7995C4.1665 21.1986 4.40016 21.612 4.79927 21.7228C5.19837 21.8337 5.61178 21.6 5.72264 21.2009L6.95895 16.7502H9C9.41421 16.7502 9.75 16.4144 9.75 16.0002C9.75 15.586 9.41421 15.2502 9 15.2502H7.37562L8.9034 9.75019H16.4872C16.5661 9.97285 16.7487 10.1548 16.9936 10.2228C17.376 10.329 17.7715 10.119 17.9015 9.75019H22C22.4142 9.75019 22.75 9.4144 22.75 9.00019C22.75 8.58598 22.4142 8.25019 22 8.25019H18.32L19.7225 3.20092Z" fill="#1C274C"/>
<path fill-rule="evenodd" clip-rule="evenodd" d="M16.2132 11.2502H17.7868C18.5739 11.2502 19.2175 11.2502 19.7374 11.2996C20.2767 11.3509 20.7599 11.4606 21.1981 11.7291C21.6354 11.9971 22.0031 12.3648 22.2711 12.8021C22.5396 13.2403 22.6493 13.7235 22.7006 14.2628C22.75 14.7827 22.75 15.4263 22.75 16.2133V16.7763C22.75 17.3365 22.75 17.7949 22.7245 18.1692C22.6981 18.556 22.6419 18.9076 22.5026 19.2439C22.1728 20.0403 21.5401 20.673 20.7437 21.0028C20.2689 21.1995 19.7457 21.235 19.1181 21.2458C18.8916 21.2497 18.7729 21.2525 18.6883 21.2619L18.6804 21.2628L18.6781 21.266C18.6304 21.3315 18.5721 21.4284 18.4598 21.6182L18.1887 22.0761C17.6567 22.9749 16.3432 22.9749 15.8112 22.0761L15.5402 21.6182C15.4279 21.4284 15.3696 21.3315 15.3219 21.266L15.3195 21.2628L15.3117 21.2619C15.2271 21.2525 15.1084 21.2497 14.8819 21.2458C14.2543 21.235 13.7311 21.1995 13.2563 21.0028C12.4599 20.673 11.8272 20.0403 11.4974 19.2439C11.3581 18.9076 11.3019 18.556 11.2755 18.1692C11.25 17.7949 11.25 17.3366 11.25 16.7763V16.2134C11.25 15.4263 11.25 14.7827 11.2994 14.2628C11.3507 13.7235 11.4604 13.2403 11.7289 12.8021C11.9969 12.3648 12.3646 11.9971 12.8019 11.7291C13.2401 11.4606 13.7233 11.3509 14.2626 11.2996C14.7825 11.2502 15.4261 11.2502 16.2132 11.2502ZM14.4045 12.7929C13.9751 12.8337 13.7486 12.9082 13.5856 13.0081C13.3502 13.1524 13.1522 13.3503 13.0079 13.5858C12.908 13.7488 12.8335 13.9753 12.7927 14.4047C12.7508 14.8453 12.75 15.4173 12.75 16.2502V16.7502C12.75 17.3429 12.7504 17.7499 12.772 18.0671C12.7932 18.3775 12.8322 18.5468 12.8832 18.6699C13.0608 19.0987 13.4015 19.4394 13.8303 19.617C14.0158 19.6938 14.28 19.7352 14.9077 19.7461L14.9335 19.7465C15.1236 19.7498 15.314 19.753 15.4768 19.771C15.6609 19.7914 15.8701 19.8357 16.0785 19.9568C16.2843 20.0766 16.4252 20.2332 16.5341 20.3825C16.6293 20.5131 16.7242 20.6736 16.8179 20.8319L17 21.1396L17.1821 20.8319C17.2758 20.6736 17.3707 20.5131 17.4659 20.3825C17.5748 20.2332 17.7156 20.0766 17.9215 19.9568C18.1298 19.8357 18.3391 19.7914 18.5232 19.771C18.686 19.753 18.8762 19.7498 19.0663 19.7465L19.0923 19.7461C19.72 19.7352 19.9842 19.6938 20.1697 19.617C20.5985 19.4394 20.9392 19.0987 21.1168 18.6699C21.1678 18.5468 21.2068 18.3775 21.228 18.0671C21.2496 17.7499 21.25 17.3429 21.25 16.7502V16.2502C21.25 15.4173 21.2492 14.8453 21.2073 14.4047C21.1665 13.9753 21.092 13.7488 20.9921 13.5858C20.8478 13.3503 20.6498 13.1524 20.4144 13.0081C20.2514 12.9082 20.0249 12.8337 19.5955 12.7929C19.1549 12.751 18.5829 12.7502 17.75 12.7502H16.25C15.4171 12.7502 14.8451 12.751 14.4045 12.7929Z" fill="#1C274C"/>
</svg>
