<svg width="24" height="24" viewBox="0 0 24 24" fill="none" xmlns="http://www.w3.org/2000/svg">
<path d="M15.7284 3.8836C17.1627 2.44371 19.2608 2.41347 20.4223 3.57944C21.5859 4.74762 21.5546 6.85885 20.1193 8.29972L17.6955 10.733C17.4031 11.0264 17.4041 11.5013 17.6975 11.7936C17.991 12.086 18.4658 12.085 18.7582 11.7916L21.182 9.35833C23.0933 7.43961 23.3333 4.37629 21.485 2.52084C19.6345 0.663185 16.578 0.905298 14.6657 2.825L9.81805 7.69145C7.90675 9.61017 7.6668 12.6735 9.51506 14.529C9.80739 14.8224 10.2823 14.8234 10.5757 14.531C10.8692 14.2387 10.8701 13.7638 10.5778 13.4704C9.41412 12.3022 9.44547 10.1909 10.8808 8.75006L15.7284 3.8836Z" fill="#1C274C"/>
<path d="M14.485 9.47037C14.1926 9.17691 13.7178 9.17599 13.4243 9.46832C13.1309 9.76064 13.1299 10.2355 13.4223 10.529C14.5859 11.6972 14.5546 13.8084 13.1193 15.2492L8.27165 20.1157C6.83733 21.5556 4.73925 21.5859 3.57778 20.4199C2.41412 19.2517 2.44546 17.1404 3.88077 15.6996L6.30461 13.2663C6.59694 12.9729 6.59601 12.498 6.30256 12.2057C6.00909 11.9133 5.53422 11.9143 5.2419 12.2077L2.81805 14.641C0.906754 16.5597 0.666794 19.6231 2.51507 21.4785C4.36554 23.3362 7.42209 23.0941 9.33437 21.1744L14.182 16.3078C16.0933 14.3891 16.3333 11.3258 14.485 9.47037Z" fill="#1C274C"/>
</svg>
