<svg width="24" height="24" viewBox="0 0 24 24" fill="none" xmlns="http://www.w3.org/2000/svg">
<path fill-rule="evenodd" clip-rule="evenodd" d="M21.0472 22.0126C21.7008 21.328 21.9874 20.2449 21.5201 19.1972L14.1576 2.68746C13.303 0.770992 10.6973 0.770992 9.8426 2.68746L2.4801 19.1972C2.01289 20.2449 2.29947 21.328 2.95301 22.0126C3.61206 22.7029 4.68829 23.0217 5.72025 22.4707L5.36701 21.8091L5.72025 22.4707L11.624 19.3187L11.2707 18.6571L11.624 19.3187C11.8624 19.1914 12.1379 19.1914 12.3763 19.3187L18.28 22.4707L18.6332 21.8091L18.28 22.4707C19.312 23.0217 20.3882 22.7029 21.0472 22.0126ZM18.9865 21.1475L18.6358 21.8043L18.9865 21.1475L13.0827 17.9955C12.4028 17.6325 11.5974 17.6325 10.9175 17.9955L5.01378 21.1475C4.65799 21.3375 4.29972 21.2509 4.03797 20.9768C3.77072 20.6968 3.6502 20.2563 3.85005 19.8081L11.2126 3.29838C11.5386 2.56735 12.4617 2.56735 12.7877 3.29838L20.1502 19.8081C20.35 20.2563 20.2295 20.6968 19.9623 20.9768C19.7005 21.2509 19.3423 21.3375 18.9865 21.1475Z" fill="#1C274C"/>
</svg>
