<svg width="24" height="24" viewBox="0 0 24 24" fill="none" xmlns="http://www.w3.org/2000/svg">
<path fill-rule="evenodd" clip-rule="evenodd" d="M21.0472 1.98744C21.7008 2.67201 21.9874 3.75513 21.5201 4.80282L14.1576 21.3125C13.303 23.229 10.6973 23.229 9.8426 21.3125L2.4801 4.80282C2.01289 3.75513 2.29947 2.67201 2.95301 1.98744C3.61206 1.2971 4.68829 0.978305 5.72025 1.52928L5.36701 2.19088L5.72025 1.52928L11.624 4.68131L11.2707 5.34291L11.624 4.68131C11.8624 4.8086 12.1379 4.8086 12.3763 4.68131L18.28 1.52928L18.6332 2.19088L18.28 1.52928C19.312 0.978304 20.3882 1.2971 21.0472 1.98744ZM18.9865 2.85249L18.6358 2.19572L18.9865 2.85249L13.0827 6.00452C12.4028 6.36753 11.5974 6.36753 10.9175 6.00452L5.01378 2.85249C4.65799 2.66253 4.29972 2.74905 4.03797 3.02323C3.77072 3.30317 3.6502 3.74374 3.85005 4.19189L11.2126 20.7016C11.5386 21.4327 12.4617 21.4327 12.7877 20.7016L20.1502 4.19189C20.35 3.74374 20.2295 3.30317 19.9623 3.02323C19.7005 2.74905 19.3423 2.66253 18.9865 2.85249Z" fill="#1C274C"/>
</svg>
