<svg width="24" height="24" viewBox="0 0 24 24" fill="none" xmlns="http://www.w3.org/2000/svg">
<path fill-rule="evenodd" clip-rule="evenodd" d="M14.3941 3.06477C11.9587 2.41221 9.49125 2.79438 7.45537 3.94297C7.09461 4.14651 6.63716 4.01905 6.43363 3.65829C6.2301 3.29753 6.35755 2.84008 6.71831 2.63655C9.08232 1.30284 11.9525 0.857647 14.7823 1.61589C20.517 3.15251 23.9203 9.04713 22.3837 14.7819C20.8471 20.5167 14.9524 23.9199 9.21768 22.3833C3.48292 20.8467 0.0796552 14.952 1.61628 9.21728C1.92054 8.08176 2.39631 7.03633 3.00873 6.1023C3.58274 5.22684 4.74051 5.15904 5.47376 5.75252L12.4718 11.4166C12.7938 11.6772 12.8436 12.1495 12.583 12.4714C12.3224 12.7934 11.8501 12.8432 11.5281 12.5826L4.53007 6.91847C4.47423 6.87327 4.41139 6.85969 4.3615 6.86572C4.31608 6.87121 4.28531 6.89094 4.26313 6.92477C3.73714 7.727 3.32761 8.62608 3.06517 9.60551C1.74296 14.5401 4.67134 19.6122 9.60591 20.9344C14.5405 22.2566 19.6126 19.3282 20.9348 14.3937C22.257 9.4591 19.3286 4.38699 14.3941 3.06477Z" fill="#1C274C"/>
</svg>
